<svg xmlns="http://www.w3.org/2000/svg" width="27" height="23.416" viewBox="0 0 27 23.416">
  <path id="Icon_zocial-call" data-name="Icon zocial-call" d="M3.324,7.541a1.633,1.633,0,0,1,.506-.936L7.881,3.1q.473-.351.709.117l3.274,5.321a.692.692,0,0,1-.169.906L10.21,10.728a1.377,1.377,0,0,0-.473.906,4.135,4.135,0,0,0,1.046,2.251,19.813,19.813,0,0,0,2.059,2.34l1.046.935c.315.273.719.609,1.216,1.009a20.414,20.414,0,0,0,2.446,1.579,5.973,5.973,0,0,0,2.684.979,1.593,1.593,0,0,0,1.08-.38l1.756-1.52a.823.823,0,0,1,1.012-.117l5.908,3.011a.439.439,0,0,1,.27.307.346.346,0,0,1-.135.336l-4.051,3.508A2.131,2.131,0,0,1,25,26.311a9.35,9.35,0,0,1-3.731-.395,18.13,18.13,0,0,1-3.847-1.593q-1.772-.994-3.291-2.016T11.7,20.552l-.878-.732q-.337-.292-.895-.8T7.982,17a29.77,29.77,0,0,1-2.4-2.938A16.206,16.206,0,0,1,3.83,10.8,6.083,6.083,0,0,1,3.324,7.541Z" transform="translate(-3.267 -2.947)"/>
</svg>
