<svg id="Layer_1" data-name="Layer 1" xmlns="http://www.w3.org/2000/svg" viewBox="0 0 1382.81 269.62"><defs><style>.cls-1{fill:#fff;}.cls-2{fill:#4d1c6b;}.cls-3{fill:#1d1d1b;}.cls-4{fill:#f08700;}.cls-5{fill:#e00817;}.cls-6{fill:#fd4;}.cls-7{fill:#ffe356;}.cls-8{fill:#37a536;}</style></defs><polygon class="cls-1" points="907.43 249.03 1011.68 249.03 959.43 133.48 907.43 249.03"/><path class="cls-2" d="M1307.74,189.34l32.74-55.67h-47.89l-11.79,27.67-11.94-27.7H1133.43v27.1c-3.88-22.07-18.18-27.11-39.45-27.11h-82.31L1063.87,249h0V217.34h29c23.72,0,36.87-11.58,40.52-30.82v62.55h134.37l11.93-30.81,12.59,30.79h48.51Zm-230.13.54h-13.73V164h16.18c8.25,0,12.4,3.7,12.4,12.71,0,9.48-4.75,13.17-14.85,13.17Zm97.9-24h47.15V137.34l23.85,40.74h-71Zm0,51.28V205h69l-21.81,39.61V217.11Z"/><path class="cls-3" d="M1344.83,121.2v-14h-5.32v-2.44h13.43v2.44h-5.36v14Zm10,0V104.77h4L1363,117.9l4-13.13h4V121.2h-2.5V107.41l-4.24,13.79h-2.48l-4.41-14v14Z"/><polygon class="cls-2" points="959.65 18.62 855.44 249.03 907.43 249.03 959.43 133.48 1011.68 249.03 1063.88 249.03 959.65 18.62"/><polygon class="cls-4" points="959.43 249.03 985.6 191.33 933.4 191.33 959.43 249.03"/><polygon class="cls-4" points="1063.88 249.03 1037.78 191.33 1011.68 249.03 1063.88 249.03"/><polygon class="cls-4" points="985.6 191.33 1037.78 191.33 1011.67 133.65 985.6 191.33"/><path class="cls-2" d="M603.66,113.79c0,5.77-2.26,11.61-11.62,11.61s-11.68-5.84-11.68-11.61V75.34h6.92v39.58c0,3.36,1.23,5.08,4.8,5.08s4.74-1.72,4.74-5.08V75.34h6.88Z"/><polygon class="cls-2" points="608.53 75.38 618.02 75.38 626.13 116.61 626.27 116.61 626.27 75.38 632.72 75.38 632.72 124.99 622.83 124.99 614.72 82.66 614.58 82.66 614.58 124.99 608.53 124.99 608.53 75.38"/><rect class="cls-2" x="637.6" y="75.38" width="6.87" height="49.61"/><polygon class="cls-2" points="647.35 75.38 654.23 75.38 661.38 114.82 661.51 114.82 668.66 75.38 675.53 75.38 665.42 124.99 657.45 124.99 647.35 75.38"/><polygon class="cls-2" points="678.62 75.38 697.31 75.38 697.31 81.15 685.5 81.15 685.5 96.68 696.62 96.68 696.62 102.45 685.5 102.45 685.5 119.22 697.31 119.22 697.31 124.99 678.62 124.99 678.62 75.38"/><path class="cls-2" d="M700.28,75.34h10.64c10,0,11.07,2.68,11.07,13.53,0,6.67-.89,9.55-6.53,11.27v.2c4.68.48,6.25,2.89,6.25,7.56v10.79a33.41,33.41,0,0,0,.41,6.32h-6.45a8.31,8.31,0,0,1-.83-4.47v-11.2c0-4.68-.83-5.91-5.36-5.91h-2.34V125h-6.86Zm6.86,22.26h1.78c5.44,0,6.2-1,6.2-8.45s-.41-8-4.69-8h-3.29Z"/><path class="cls-2" d="M726.28,110.63h6.88v4.06c0,3.29,1.24,5.35,4,5.35,3.65,0,4.54-2.47,4.54-5.71,0-4.19-.22-5.56-7.35-12.63-4.41-4.4-8-8.39-8-15.13,0-8.1,3.78-11.6,11.28-11.6a11.68,11.68,0,0,1,8,2.74c1.17,1.11,2,2.82,2,6.33V88.7h-6.55V84.78c0-2.8-1.17-4.46-3.85-4.46s-4.12,1.59-4.12,5.43c0,3.36.69,5.43,7,12,6.74,7,8,9.42,8,15.39,0,7.77-3,12.23-11.21,12.23-6.33,0-10.66-2.68-10.66-8.87Z"/><rect class="cls-2" x="751.25" y="75.38" width="6.88" height="49.61"/><polygon class="cls-2" points="760.88 75.38 784.24 75.38 784.24 81.15 776 81.15 776 124.99 769.12 124.99 769.12 81.15 760.88 81.15 760.88 75.38"/><rect class="cls-2" x="786.98" y="75.38" width="6.88" height="49.61"/><path class="cls-2" d="M580.05,172.64h6.88v4.05c0,3.3,1.23,5.36,4,5.36,3.65,0,4.53-2.47,4.53-5.7,0-4.19-.2-5.57-7.34-12.64-4.4-4.4-8-8.39-8-15.12,0-8.11,3.78-11.61,11.27-11.61a11.72,11.72,0,0,1,8,2.75c1.15,1.09,2,2.82,2,6.31v4.68h-6.46V146.8c0-2.81-1.16-4.47-3.84-4.47s-4.12,1.59-4.12,5.43c0,3.37.69,5.43,7,12,6.73,7,8,9.42,8,15.39,0,7.77-3,12.23-11.21,12.23-6.32,0-10.65-2.67-10.65-8.86Z"/><path class="cls-2" d="M613.45,137.4h8l10.1,49.6h-6.87l-2.28-12.66H611.67L609.4,187h-6.87Zm-.75,31.19h8.73l-4.26-23.91H617Z"/><rect class="cls-2" x="633.79" y="137.4" width="6.88" height="49.6"/><polygon class="cls-2" points="645.67 137.4 655.16 137.4 663.27 178.62 663.4 178.62 663.4 137.4 669.87 137.4 669.87 187 659.96 187 651.86 144.68 651.72 144.68 651.72 187 645.67 187 645.67 137.4"/><path class="cls-2" d="M673.28,172.64h6.88v4.05c0,3.3,1.23,5.36,4,5.36,3.64,0,4.53-2.47,4.53-5.7,0-4.19-.2-5.57-7.35-12.64-4.39-4.4-8-8.39-8-15.12,0-8.11,3.79-11.61,11.27-11.61a11.74,11.74,0,0,1,8,2.75c1.16,1.09,2,2.82,2,6.31v4.68h-6.53V146.8c0-2.81-1.17-4.47-3.85-4.47s-4.12,1.59-4.12,5.43c0,3.37.69,5.43,7,12,6.74,7,8,9.42,8,15.39,0,7.77-3,12.23-11.2,12.23-6.32,0-10.65-2.67-10.65-8.86Z"/><polygon class="cls-2" points="580.05 199.4 590.98 199.4 597.3 237.18 597.44 237.18 603.76 199.4 614.41 199.4 614.41 249.01 607.95 249.01 607.95 204.34 607.81 204.34 600.81 249.01 593.94 249.01 586.24 204.34 586.11 204.34 586.11 249.01 580.05 249.01 580.05 199.4"/><path class="cls-2" d="M627.57,199.4h8L645.68,249H638.8l-2.3-12.67H625.78L623.51,249h-6.86Zm-.76,31.19h8.73l-4.26-23.91h-.14Z"/><polygon class="cls-2" points="648.09 199.4 654.96 199.4 654.96 243.23 666.5 243.23 666.5 249.01 648.09 249.01 648.09 199.4"/><path class="cls-2" d="M679.28,199.4h8L697.38,249H690.5l-2.22-12.67H677.52L675.28,249h-6.9Zm-.76,31.19h8.76L683,206.68h-.14Z"/><polygon class="cls-2" points="692.85 199.4 699.73 199.4 705.7 220.28 705.84 220.28 712.71 199.4 718.76 199.4 709.21 228.67 709.21 249.01 702.35 249.01 702.35 228.67 692.85 199.4"/><path class="cls-2" d="M718.4,234.64h6.88v4.07c0,3.28,1.24,5.34,4,5.34,3.64,0,4.53-2.47,4.53-5.7,0-4.19-.2-5.56-7.35-12.64-4.4-4.39-8-8.38-8-15.11,0-8.11,3.79-11.62,11.26-11.62a11.74,11.74,0,0,1,8,2.75c1.17,1.1,2,2.82,2,6.32v4.67h-6.44V208.8c0-2.81-1.18-4.46-3.85-4.46s-4.13,1.58-4.13,5.42c0,3.38.69,5.44,7,12,6.75,7,8,9.42,8,15.39,0,7.77-3,12.22-11.2,12.22-6.32,0-10.65-2.67-10.65-8.86Z"/><rect class="cls-2" x="743.74" y="199.4" width="6.87" height="49.61"/><path class="cls-2" d="M764.62,199.4h8L782.72,249h-6.87l-2.29-12.67H762.84L760.57,249H753.7Zm-.75,31.19h8.73l-4.26-23.91h-.14Z"/><path class="cls-1" d="M321.91,252.57a36.84,36.84,0,0,0,21.16-6.65V249h4.21v-6.5A34.57,34.57,0,0,0,357.8,222.1h.05V249h27.2l-.43-.42H411c-.27.13-.51.31-.79.44h46.27V133.34L480.57,249l24.05-115.65V249h25.94V75.24H497.13l-16.56,77.68L464,75.24H431.66V75H357.11v.21h-24.9V220.06a10.3,10.3,0,0,1-20.59,0V75.24H285.7V217.48C285.7,236.84,301.91,252.57,321.91,252.57Z"/><rect class="cls-1" x="542.15" y="75.24" width="4.19" height="173.77"/><rect class="cls-1" x="271.06" y="75.24" width="4.19" height="173.77"/><path class="cls-1" d="M26.75,192.07c7,8.57,3.38,16.66-.84,20.87a15.48,15.48,0,0,0-2.23,1.89h0a.77.77,0,0,1-.09.13l-.17.14a1.26,1.26,0,0,0-.27.51,8.42,8.42,0,0,0-.57,4.35,6.72,6.72,0,0,0-4.36,4.38,8.81,8.81,0,0,1,5-.5,9.77,9.77,0,0,0-3.36,5.61,8.25,8.25,0,0,1,4.42-1.11A11.69,11.69,0,0,0,20,233.1c2.49-.51,4-.47,5,.07a31.57,31.57,0,0,1,.33,4c0,1,4.16,2.79,8,3.43,2.11.35,3.52,1.52,5.41,1.93-2.42,1.49-7.88,1.72-9.54-.55-.58.58.22,2.33,1.89,3.22,2.81,1.48,8.61,8.47,9.85,11.65,11.93,3,11.26-7.33,11.26-11.19,0-6.81,1-10.68,3.21-12.16,1.74-1.18,4.48-1,8.58.52a28.09,28.09,0,0,1-2,7.14l-.13.3.09.32c6.41,9.47,30.15,17.46,61.58,17.46h0c31.42,0,55.16-8,61.58-17.46l.09-.32-.13-.3a28.09,28.09,0,0,1-2-7.14c4.1-1.54,6.85-1.7,8.6-.52,2.18,1.48,3.2,5.35,3.2,12.16,0,3.86-.67,14.2,11.25,11.19,1.25-3.18,7-10.17,9.86-11.65,1.67-.89,2.46-2.64,1.89-3.22-1.65,2.26-7.08,2-9.51.58,1.89-.42,3.29-1.59,5.4-1.94,3.82-.63,8-2.38,8-3.43a28.16,28.16,0,0,1,.34-4c1.06-.54,2.54-.58,5-.08a11.56,11.56,0,0,0-4.32-4.74,8.24,8.24,0,0,1,4.38,1.13,9.85,9.85,0,0,0-3.36-5.62,8.83,8.83,0,0,1,5,.51,6.73,6.73,0,0,0-4.31-4.41,8.27,8.27,0,0,0-.69-4.52,1.58,1.58,0,0,0-.2-.36l-.11-.09a.64.64,0,0,0-.11-.16v.06h-.05A16.59,16.59,0,0,0,221,213h.06c-4.22-4.2-7.79-12.29-.84-20.86,21.14,4.46,18-21.21,11.87-34.27-5.4-11.62-13-25.19-8.52-33.1,2.86-5.08,8.93-1.62,10.53-4.85,1.28-2.62-10.27-8.78-17.12,3.62-3.32,6-1.88,14.1,1.51,19.49a.24.24,0,0,1,0-.12c.21.52.43,1,.65,1.52,10.34,21.76,9.17,33.21,7.13,35.25-1.51,1.52-3.12,1.15-4-1.88s-4.57-14.64-12.29-23.58v-.07c-.16-.29-.46-.85-.75-1.36a16.48,16.48,0,0,1-1.16-3.12h0a59.07,59.07,0,0,0-3.49-9.08,35.13,35.13,0,0,0,1-11.91c.5-3,2.62-4.38,6-7.71,5.58-5.56,11.95-15.92,8.73-32.67a14.67,14.67,0,0,0,4.87-7.42,11.27,11.27,0,0,0-6.08-1H219a17.39,17.39,0,0,0-2.4.2c-.19-.13-.56-.37-1.23-.74.33-1.16,1-3.89.42-4.48-2,1.13-3.4,2.08-4.33,2.72a20.69,20.69,0,0,0-14.86.1h0c-.78.14-1.43.28-2,.41h.06l-.34.09-1.22.3a2.76,2.76,0,0,0-.68.3,4.06,4.06,0,0,0-2.14,1.57c-1.6.34-4.5,1.08-5.77,2.28a12.87,12.87,0,0,0-1.62.68c-3.48.81-3.13,1.88-1.23,3.76.79,6.27,2.22,7.71,6,7.71,2.62,0,5-1.84,7.53-.52,1.27,1.26,2.12,3.63,1.17,5.39a.75.75,0,0,0-.07.12c-.89-1.31-3.89-4.66-10.76-3.57a11.3,11.3,0,0,1-1.84,0c-1.81-.09-3.74-2.19-4.08-4-.06-.23-.19-.21-.27,0-2,4.61,1.85,6.37,4.67,6.6a3.92,3.92,0,0,0-.53,2c-2.35,1.59.91,6.65,1.59,6.65,0-2.57,2.36-3.45,3.34-2.81a1.58,1.58,0,0,1,.56,2.15,2.24,2.24,0,0,1-.27.34c-1.2,1.2-7.07.93-9.9,1.55.37.37.85.74.85,1.24a19.72,19.72,0,0,0-7.37,5.43h0a3.25,3.25,0,0,1-2,0s.31-11.5,1.39-14.31c1.57-4.06,2.89-7.17,4.19-8.47a5.21,5.21,0,0,0,1.55-3.93,2.46,2.46,0,0,0-1.87-2.48c.09-1,.12-2,.11-3,1.2-2.72-1-5.14-3.27-5.73,2.65-7.8,12.16-6,13.5,2.56,4-10.33-2.42-12.73-4.78-12.73,1.68-.84,9.32-2.33,12.6,3,.51-9-7-9.32-9-9.46a7.45,7.45,0,0,1,2.84-.52c2.44,0,7.23.46,10.48,3.82a13.35,13.35,0,0,0-10.13-8.23,13.36,13.36,0,0,1,2-.15c3.22,0,8.81,1,12.39,4.13A12.23,12.23,0,0,0,192,50.9c3-.42,8.76-.76,12,2.53a13.74,13.74,0,0,0-9.1-7.38,13.49,13.49,0,0,1,11.52,2.29c-1.68-4.68-6.63-7.7-11.13-8.06C202,39.28,206,40.82,210,44c-13.26-22.08-41-5.74-43.31,33.38a3,3,0,0,0-1.15,2.33c-5.53.6-5.34,4.86-4.94,5.76-4.16,2.74-1.45,9.09-1.45,9.09l.32,7.43c-.12.92-.27,1.91-.45,2.94-2,4.3-5.28,21-3.38,22.93.84.83,6.49,6.54,9.15,8.84-3.21,3.86-7.32,8.67-10.38,11.82l.74-56.72-9.78-15.3a3.21,3.21,0,0,0,2.35-1.75c1.53-3.63-2.48-7.44-6.94-5.92-.72-1.38-4.24-2.51-7.43-2.17a24.51,24.51,0,0,0,14.75-22.44,32.37,32.37,0,0,0-1.66-8.82C145,49.68,135.27,58.44,123.58,58.44h0c-11.29,0-20.72-8.24-22.65-21.71v-.94l-.14.39a7.62,7.62,0,0,0-.14-.81A32.35,32.35,0,0,0,99,44.19a24.47,24.47,0,0,0,14.78,22.45c-3.22-.38-6.82.76-7.55,2.16-4.47-1.52-8.47,2.29-7,5.92a3.32,3.32,0,0,0,2.53,1.78L91.9,91.77l.73,56.7c-3-3.15-7.15-8-10.36-11.82,2.66-2.3,8.29-8,9.13-8.85,1.94-1.92-1.44-19-3.42-23v.15c-.17-1-.32-1.93-.44-2.82a.11.11,0,0,0,0,.08l.34-7.64s2.7-6.37-1.47-9.1c.41-.9.59-5.15-4.94-5.76a3,3,0,0,0-1.15-2.32C78,38.21,50.32,21.87,37,43.94c4.05-3.13,8-4.68,14.72-3.67-4.5.34-9.45,3.38-11.13,8A13.48,13.48,0,0,1,52.09,46,13.79,13.79,0,0,0,43,53.34c3.21-3.29,9-3,12-2.53a12.18,12.18,0,0,0-10.27,8.94c3.57-3.16,9.16-4.12,12.39-4.12a16.79,16.79,0,0,1,2,.13A13.37,13.37,0,0,0,49,64c3.24-3.35,8-3.81,10.47-3.81a7.48,7.48,0,0,1,2.84.51c-2,.14-9.45.46-8.95,9.46,3.28-5.32,10.93-3.84,12.61-3-2.36,0-8.75,2.38-4.79,12.72,1-6.43,6.57-9,10.42-6.68l.13.09a7.56,7.56,0,0,1,3,4c-2.3.59-4.48,3-3.27,5.73,0,2.09.1,3,.1,3a2.44,2.44,0,0,0-1.87,2.48,5.18,5.18,0,0,0,1.56,3.93c1.3,1.3,2.61,4.4,4.18,8.46,1.08,2.82,1.4,14.32,1.4,14.32a3.38,3.38,0,0,1-1.81.07,25.77,25.77,0,0,0-7.51-5.46c0-.5.5-.87.86-1.24-2.83-.62-8.69-.34-9.89-1.55a1.55,1.55,0,0,1-.07-2.2,1.6,1.6,0,0,1,.35-.28c1-.65,3.34.24,3.34,2.79.68,0,4-5,1.6-6.63a4,4,0,0,0-.54-2c2.83-.22,6.65-2,4.67-6.6-.06-.16-.21-.17-.27,0-.35,1.84-2.3,4-4.14,4a10.29,10.29,0,0,1-1.57,0c-7-1.21-10.08,2.21-10.95,3.55l-.08-.13c-.95-1.75-.1-4.14,1.16-5.4,2.54-1.31,4.9.52,7.52.52,3.76,0,5.18-1.42,6-7.69,1.92-1.92,2.27-3-1.32-3.79a12.7,12.7,0,0,0-1.54-.62h.08c-1.23-1.22-4.2-2-5.83-2.32A4.7,4.7,0,0,0,54,78.29h-.07l-.41-.11c-.36-.1-.69-.21-1.11-.3.07,0,.1.06.16.08-.67-.16-1.5-.33-2.46-.49h.4a20.72,20.72,0,0,0-14.87-.09,50,50,0,0,0-4.34-2.72c-.59.59.11,3.32.43,4.47a14.17,14.17,0,0,0-1.24.76,18.14,18.14,0,0,0-2.2-.19,11.19,11.19,0,0,0-6.37,1,14.57,14.57,0,0,0,4.87,7.43h0c-3.21,16.75,3.15,27.1,8.73,32.66,3.36,3.34,5.46,4.73,6,7.72a34.82,34.82,0,0,0,1,11.9,58,58,0,0,0-3.5,9.1,19.51,19.51,0,0,1-1.07,2.88c-.32.58-.69,1.26-.89,1.6a.86.86,0,0,1-.1.16c-7.65,8.93-11.29,20.45-12.19,23.46s-2.52,3.42-4,1.9c-2-2-3.22-13.5,7.13-35.26l-.16.29c.29-.65.58-1.31.85-2a.92.92,0,0,1-.09.28c3.4-5.37,4.84-13.46,1.52-19.48-6.87-12.4-18.41-6.24-17.11-3.61,1.58,3.21,7.65-.23,10.51,4.83,4.46,7.92-3.11,21.5-8.53,33.1C8.8,170.87,5.63,196.54,26.75,192.07ZM211.89,81Zm-58,113.75.26-20.14h.33a3.14,3.14,0,0,0,2.4,1.93,4.2,4.2,0,0,1-.86-2.36,5,5,0,0,0,2.54-2.19l-.15.07a7,7,0,0,0,.49-.79l.23-.28a3.25,3.25,0,0,0,1.3-.3,2.27,2.27,0,0,0,2.45.82,2.59,2.59,0,0,1-1.21-1.69,4,4,0,0,0,.83-4.22,9.06,9.06,0,0,0-.58-1.9,4.52,4.52,0,0,1,.37-1.95,30.45,30.45,0,0,1,11.15-8.4c3.88,7.18,13.63,10.51,19.53,15.69-4.86-.48-18.4.33-23.38,7.49l.1-.08a10.15,10.15,0,0,0-1.06,1.47,1.48,1.48,0,0,1,.12-.29c-2.67,2.3-3.24,13.62-3.23,17.12a2.6,2.6,0,0,1-1.3,1.92,11.11,11.11,0,0,1-7.38,1.28h-.13a6.06,6.06,0,0,0-4-1.66Zm-80.11-41.4a30.71,30.71,0,0,1,11.09,8.29,4.9,4.9,0,0,1,.4,2,8.27,8.27,0,0,0-.61,2.06,4,4,0,0,0,.9,4.06,2.67,2.67,0,0,1-1.21,1.68,2.28,2.28,0,0,0,2.44-.82,3.37,3.37,0,0,0,1.25.3l.26.32a4,4,0,0,0,.44.71h-.08a4.87,4.87,0,0,0,2.55,2.2,4.32,4.32,0,0,1-.87,2.37,3.21,3.21,0,0,0,2.41-1.94.61.61,0,0,1,.32.06l.26,19.81v.3l1.16,1.49a6,6,0,0,0-4,1.67h-.09a11.15,11.15,0,0,1-7.42-1.28,2.56,2.56,0,0,1-1.31-1.93c0-3.48-.55-14.81-3.23-17.12a3,3,0,0,1,.22.52,11.18,11.18,0,0,0-1.49-2c.14.12.31.22.44.35-5-7.15-18.51-8-23.39-7.49C60.11,163.83,69.84,160.5,73.73,153.34ZM48.59,98.67a.61.61,0,0,0,0,.19.5.5,0,0,0-.05-.13ZM37.68,217.52c.48-1.44,14.28-9.68,19.15-18.85a10.37,10.37,0,0,0,1.27-7.5c1.76-.38,5.65-.78,8.55,2.12,3.12,3.13-.11,13.35,1.4,13.79a29.3,29.3,0,0,1,3.57,1.5s1.39,1.76.43,5.3a23.26,23.26,0,0,0,5.08-3.75,12.82,12.82,0,0,1,.4,5.12c2.59-.9,5.9-5.21,5.9-5.21a7.82,7.82,0,0,1,1.41,4.46c1.86-.82,4-2.51,4.57-4.11,3.34-.26,5.81,1.67,8.54.05.37-.21,1.89,1,2.74,2.79a5.5,5.5,0,0,0-1-4.87,1.59,1.59,0,0,0,.64-1.24,4.36,4.36,0,0,0,.88-2.18l22.34,28.67,22.34-28.67a4.37,4.37,0,0,0,.88,2.21,1.47,1.47,0,0,0,.66,1.22,5.48,5.48,0,0,0-1,4.89c.84-1.77,2.37-3,2.73-2.81,2.73,1.63,5.21-.31,8.54,0,.63,1.59,2.7,3.28,4.58,4.1a7.71,7.71,0,0,1,1.41-4.45s3.31,4.3,5.9,5.22a12.58,12.58,0,0,1,.39-5.14,23.25,23.25,0,0,0,5.09,3.77c-1-3.55.42-5.3.42-5.3a26.84,26.84,0,0,1,3.58-1.51c1.52-.44-1.72-10.67,1.39-13.8,2.9-2.88,6.78-2.49,8.56-2.11a10.32,10.32,0,0,0,1.27,7.5c4.86,9.17,18.66,17.41,19.15,18.84.73,2.21,0,9.06-.53,10.83-.67,2.34-5.09,2-5.09,2l.51.2h0a3.72,3.72,0,0,0-.79-.22h0c.25-8.58-5.51-14.67-15.77-16.36-11-1.81-25,2-26.77,9.59-.73,3.06,3.07,3.71,4.37,9.13-10.3,4.23-23.37,6.63-41.81,6.66S92,237,81.73,232.74c1.3-5.42,5.1-6.07,4.38-9.13C84.3,216,70.28,212.21,59.34,214c-10.25,1.69-16,7.76-15.78,16.3h0a2,2,0,0,0-.35.07h.07s-4.4.36-5.07-2C37.71,226.57,36.94,219.73,37.68,217.52Z"/><polygon class="cls-1" points="112.34 42.51 108.47 49.19 115.77 46.89 115.27 54.48 120.79 49.34 123.56 56.34 126.33 49.34 131.86 54.48 131.37 46.89 138.65 49.19 134.78 42.51 142.39 41.36 135.87 37.27 142.39 33.16 134.78 32.02 138.65 25.35 131.37 27.64 131.86 20.05 126.33 25.18 123.56 18.19 120.79 25.18 115.27 20.05 115.77 27.64 108.47 25.35 112.34 32.02 104.73 33.16 111.25 37.27 104.73 41.36 112.34 42.51"/><path class="cls-2" d="M497.13,75.24l-16.56,77.68L464,75.24h-51.5a34.91,34.91,0,0,1,18.06,30.35v26.75H404.66V103a10.3,10.3,0,0,0-20.59,0v43.83h46.51v70.63A35,35,0,0,1,410.28,249h46.27V133.34L480.61,249l24-115.65V249h25.94V75.24Z"/><path class="cls-2" d="M384.07,182.64v36c0,5.5,4.62,11.4,10.28,11.4a10.15,10.15,0,0,0,10.31-10V167.79H358.15v-62.2a34.87,34.87,0,0,1,18.06-30.35h-44V220.06a10.3,10.3,0,0,1-20.59,0V75.24H285.7V217.48c0,19.36,16.21,35.09,36.21,35.09s36.24-15.73,36.24-35.09V182.64Z"/><polygon class="cls-4" points="441.46 249 441.46 75.24 445.66 75.24 445.66 249 441.46 249 441.46 249"/><polygon class="cls-4" points="343.07 249 343.07 75.24 347.28 75.24 347.28 249 343.07 249 343.07 249"/><polygon class="cls-4" points="542.15 249 542.15 75.24 546.34 75.24 546.34 249 542.15 249 542.15 249"/><polygon class="cls-4" points="271.06 249 271.06 75.24 275.25 75.24 275.25 249 271.06 249 271.06 249"/><polygon class="cls-4" points="385.05 249 357.85 249 357.85 221.81 385.05 249"/><path class="cls-2" d="M154.28,92.06,144.44,76.7a6.36,6.36,0,0,0-3.32-2.09c-1.07-.24-2.94.19-4.33,0-.95-.09-3.37-1.32-4.37-1.2a23,23,0,0,1-8.78-.31h0a23,23,0,0,1-8.78.31c-1-.12-3.41,1.11-4.36,1.2-1.39.15-3.27-.28-4.33,0a6.35,6.35,0,0,0-3.33,2.09L93,92.06l1.33,102.37,29.32,37.68v.06h0v-.06l29.33-37.68Z"/><polygon class="cls-3" points="144.67 75.38 143.12 76.37 153.34 92.31 152.03 194.1 123.56 230.68 95.1 194.1 93.79 92.31 104.28 76.06 102.75 75.07 91.95 91.79 93.28 194.44 93.28 194.74 123.56 233.61 153.84 194.74 155.17 91.79 144.67 75.38"/><path class="cls-1" d="M155.18,198.24s-5.47-4.11-6.23,2.07a5.53,5.53,0,0,0-1.81,1.76c-1.29,3,1.72,7.75,4,7.75a41.82,41.82,0,0,0,5.47-.51Z"/><path class="cls-1" d="M161.56,163s2,3.6.3,5.28-2.18,1.74-2.18,1.74a8.5,8.5,0,0,1-2.68,2.94c-1.82,1.17-5.14.82-5.14.82s-.48,1-2.48.69-3.24-4.67-3.24-4.67a3.36,3.36,0,0,1-2.23-1,2.94,2.94,0,0,1-.11-4.16h0c1.27-1.26,2.46-1.25,2.94-2.71s0-3.88,1.82-6.52,6.5-6.08,6.5-6.08Z"/><path class="cls-4" d="M213.58,94.39s-.83,5.36-3.11,7.35a39.28,39.28,0,0,0-4.66,5.16,5.6,5.6,0,0,1-1.51-3.31c-1.42.55-2.8,3.79-2.8,3.79s-2-1.35-1.75-2.43c-.39,0-2.1,1.71-3.32,1.2,0,2.64-1.93,7.26-4,8,.2-.71-2,1-2.08.67-1.48,1.46-3.52.24-5.38.74C173.21,119,172.65,130.42,169.88,133c-7.63,7-8.28,8.14-11.88,13.4-.48,2.84-11.38,6.63-11.38,14.72,0,1.12-.75,2.79,3.25,4.54.32,1.4,2.06,1.91,3.7,2.24,1-3.07,3.09-2.6,3.83-2.18,1.44-2.81,4.06-1.93,4.8-.13-.58-2-.43-3.14.07-4s8.31-9.48,12.16-10.7,5.28-1.83,7.91-1.83c-.46,3.47,2.16,6.21,5.89,9.73a9.1,9.1,0,0,1,.21-3.37,16.91,16.91,0,0,1,5.42,6.27,5.75,5.75,0,0,1,.4-2.28c4.06,6,9.49,18.27-.56,22.72,0-3.24-2.81-11.66-8.73-11.66s-13.85,2.34-16.92,8.24c-1.42,2.75-1.8,8-1.8,13.12.44,2.53-.35,8.78-11.12,5.69.14.28-1.58-.75-1.75.08,1.2.21,1.81,1,2.07,2.92-.07.47-1.68-.53-1.79-.05,1.08.07,1.67,2.08,1.15,3.08,2.36,1.88-1,3.27,1.09,5.32a5.34,5.34,0,0,1,2.06,1,21.08,21.08,0,0,1,3.32,2.72c.6-1.6,1.3-3.41,2.58-3.81.91,1.52,3.82,4.79,4.79,4.49.82-.25.16-1.84.67-3.72,1.65.87,1.9,1.85,4.05,2.27.38-2,.48-3.11,1.37-4.33a5.6,5.6,0,0,1,3.34-1.42c-4.35-20.33,9.89-16.55,11.87-14.58C189,201.73,207.59,213,210,216.19c1.19,1.53,3.09,15.47-4.32,14.39-.35.1-1.17-.16-1.41,0s0,.3-.08.39a1.4,1.4,0,0,0-.47,1.55c.08.9,2.66,1.66,2.48,3.49,2.89,0,3,4.85,3,4.85s7.12-1.13,10.66-3.28c1.61-1,1-3.67,1.65-4.8s2.52-.8,3.75-.8c0-1.52-3.72-4.19-3.72-4.19l4.54.89s-1.5-4.09-3.94-4.84c.79-.8,4-1.19,5.34.11.36-2.24-4-3.62-4-3.62s1-4.25.07-5.22a9.54,9.54,0,0,0-1.69-1.22,16.45,16.45,0,0,1-4.62-5.27c-1.82-2.89-4.18-9.21.92-16.4,2.33-3.32,1.8-.29,5.47-.49s16.14-1.84,10.79-24.06a79.7,79.7,0,0,0-6.18-17.22c-3.65-7.76-6-9.36-6.6-16.74-.6-6.67,1.39-11.31,4.52-12.13s8.45-.14,7.15-2.61c-1.19-2.31-3.92-3.38-7.27-2.16s-10,5.79-10,11.26c0,17.19,7.14,19.47,10.95,34.39,1.37,5.39,2.74,15.21-.53,18.49-1.57,1.56-2.81.33-3.51-.37s-3.78-8.74-6.48-15.3c-1.12-2.75-4-6.88-6.44-11.17l-1.3-2.37a56.83,56.83,0,0,0-5.19-11.49l.62-14.62s4.31-4.43,9.13-9.26S221.86,94,220.86,93s-.68-4.62-.68-4.62,3-2.64,3-5.84c-4.72,6.09-8.17,5.61-9.5,5.61C214.62,90.62,213.58,94.39,213.58,94.39Z"/><path class="cls-4" d="M173.6,93.27s-2.84,8.44-3.4,11.06-1,12.24-1,12.24-3.44,3.13-5.56,12.81c-7.78,0-7.21-7.2-7.21-9.78s2.83-14.09,3.28-19.84a18.76,18.76,0,0,1,.62-4.41c2.15,1.38,3.73-.75,4.41-1.94a4.16,4.16,0,0,1,.25,1.71c-.1,2.25-.27,5.63-.55,7.57a6.38,6.38,0,0,0,2.68.88l1.54-7.85Z"/><path class="cls-5" d="M179.56,94.34a3,3,0,0,0,1.84,2.84,18.13,18.13,0,0,0,5,1c2,.21,6.38.41,6.38.41A3.79,3.79,0,0,0,190.61,97a22.78,22.78,0,0,0-4-.77c-1.36,0-3.46.49-4.84-.43C181.06,95.25,179.56,94.34,179.56,94.34Z"/><path class="cls-4" d="M140.66,69.88a5.27,5.27,0,0,1,2.66-.42c2,0,3.07.68,3.07,1.6s1.22,2.84.36,3.69a2.35,2.35,0,0,1-2.39,1,7.56,7.56,0,0,1-3.28-1.16S141.37,71.11,140.66,69.88Z"/><path class="cls-4" d="M123.52,68.26c1.35-.24,5-.86,6.08-.35s3.4,1.59,2.89,2.94.42,1.87-.6,2.64-4.72.87-5.85.41a21.9,21.9,0,0,1-2.48-1.27Z"/><path class="cls-4" d="M114.61,70.88l1.08-2.36s-3.58-1.51-5.07-1c-2,.66-2.54.3-3.57,1.32a6,6,0,0,0-1.39,3.75,3.32,3.32,0,0,0,3.11,2.77c2,0,5.92-2.36,5.92-2.36Z"/><path class="cls-6" d="M146.84,37.75C144.56,49.84,135.18,59.57,123,59.57a22.05,22.05,0,0,1-22.09-22,14.14,14.14,0,0,1,.07-1.73,23.56,23.56,0,0,0,22,32.17C136,68,150.57,56.34,146.84,37.75Z"/><polygon class="cls-6" points="134.45 37.27 140.53 33.57 133.02 32.29 136.59 26.7 130.72 28.92 131.32 21.32 126.35 26.21 123.56 20.07 123.5 20.89 120.68 26.77 116.11 21.6 116.33 28.82 110 26.86 113.2 32.48 106.89 33.34 112 37.64 106.68 41.09 112.97 41.98 109.73 48.39 116.02 45.94 116.33 52.52 120.98 48.07 123.47 52.99 123.64 54.87 126.15 48.11 131.05 52.61 130.65 46.22 136.55 47.48 132.99 41.99 140 40.94 134.45 37.27"/><path class="cls-7" d="M165.28,94.06a34.07,34.07,0,0,1-.24,3.42c-.2,1.92-.5,4-.63,5.21s3.34.53,3.34.53l1-8.34Z"/><path class="cls-6" d="M167.62,77.55a7.17,7.17,0,0,1,4.18-.07c3.32-28.23,14.12-43.47,32.52-38.32,0-2.31-6.06-4.08-8.09-4.08-13.09,0-20.9,13.4-22.64,16.9C168.07,63.09,167.62,77.55,167.62,77.55Z"/><path class="cls-4" d="M200.69,100.4a.75.75,0,0,0-.1.2Z"/><path class="cls-4" d="M220.35,83.34c2.74-2.44,1.35-3.53-1.34-3.51a33.71,33.71,0,0,0-7.26,1.22l3.39-1.22s-6.4-2.16-8.89-2.58c-5.14-.86-11.62.76-13.11,1.15S190,81.05,190,81.05s-6.69,1.67-7.61,2.59-1.5,1.21-1.07,2.36,2.16,1.49,2.16,1.49,4.77-1.19,8-.5c2.08.44,4.78,3.72,1.88,5.11,3.67.94,4.74,2.65,5.27,7.14.4.33,1.48-4.73,1.73-4.38a5.55,5.55,0,0,1,.37,5.55,7.25,7.25,0,0,1,2.37-2.64h0l1.82-.78h0a6.23,6.23,0,0,1,2.11-.12c2.13,0,3.43-6,3.43-6s1.27,1,1.08-.13A11.26,11.26,0,0,0,208,82.93c1.77,0,4.62,2.81,5.29,3.94A14.44,14.44,0,0,0,220.35,83.34Zm-21.07,4.53a6.81,6.81,0,0,1-4.79-2.73c-.52-.87-.87-1.51-.87-1.51s3.15-3.58,8.3-.15C204.68,85.34,201.94,88,199.28,87.87Z"/><path class="cls-6" d="M123.55,240.34c19.52.82,39.19-5.39,42.54-6.79,0-2.44-.27-4.18-2.31-6.22s-3.81-4.31.13-8.25c6-6,38.5-10.34,38.5,11.17,0,9.36-.67,7.58,3.72,12s6.61,2.43,9,2.43c-4.72,4.06-8.17,8.12-9.77,11.75-16.07,2.45-7.57-17.55-11.29-21.26s-6.59-3.74-12-1.5a45.34,45.34,0,0,0,2.16,8.09s-7.83,16-60.64,16.88C120.35,250.05,123.55,240.34,123.55,240.34Z"/><path class="cls-4" d="M181.28,241.34c-.66,1.11-3.91,4.17-9.83,3.26,2.6-.68,7-2.88,7.43-4.42-5,2.44-8.77,1.53-8.77,1.53s6.8-2.13,7.88-4.43a30.26,30.26,0,0,1-8.43.71s6.07-1.49,8.14-4.23a15.71,15.71,0,0,1-9.06,1.33s7.09-1.52,10.14-6.09A40.4,40.4,0,0,0,181.28,241.34Z"/><path class="cls-4" d="M173.85,222.11c-6.57,6.53-12.37,3.93-11.89,2.23.67-2.33,3.8-4.66,9.19-4.93-4.61,1.28-5.94,3.87-5.94,3.87a15.12,15.12,0,0,1,7.16-2.22,21.37,21.37,0,0,0-5.57,3.77A19.45,19.45,0,0,1,173.85,222.11Z"/><path class="cls-4" d="M202.11,230.18s.43-9.27-8.85-8.54c4.91,1.2,5.28,4.15,5.28,4.15s-2-2.74-8.1-1.57c5.9,0,7,3.36,7,3.36a10.94,10.94,0,0,0-9.34-1c6.71,0,7.75,3.62,7.75,3.62s-3.45-4.19-11.37-.64c12.94-3,10.18,7,10.18,7s.67,13.64,1.82,14.82C196.92,243.56,201,240,201,240s.75,7,8.28,4.77a8,8,0,0,1-3.17-2.43l-1.64-1.63a11.69,11.69,0,0,1-2.53-.82c-1-.5-1.63-3.55-1.63-3.55l-1.22-1.21s.78-3.53,1.28-4a4.62,4.62,0,0,1,1.72-.85"/><path class="cls-4" d="M164,226.64l2.53,6.8s7.81-4.16,9.74-5.59,4.26-3,4.67-4.56,1.62-3.65-1.22-3.24-6.65,3.5-7.41,4.26S164,226.64,164,226.64Z"/><path class="cls-8" d="M170.47,77a1.59,1.59,0,0,1,1.33.51c1.19-3.89,9.42-9.77,13.88,0,1.19-8.8-3.08-10.13-7.45-10.13,4.67-3.27,10.24-3.51,14.55.8,0-4.87-5.2-7.77-11.49-6.53,2.44-3.15,8.34-3.42,14.79.74-4.11-5.88-7.78-6.45-12-6.56,8-1.72,10-1.5,16.55,2.15-2.09-5.73-9.16-7.42-13.42-6.64,5-2.66,13.12-2.2,15.39.56-3.73-3.73-7.92-6.68-13.29-5.13,3.31-2.36,11.16-3.35,16.33.94-2.14-4.72-10.52-8.89-15.56-5.92,6.36-3.9,16.22-1.63,17.38,0C188,26.79,171.19,50.76,170.47,77Z"/><path class="cls-6" d="M209.92,89.92a4,4,0,0,1-1.51,2.57,1.64,1.64,0,0,0-.09-1.63c-1.26,3.55-6.57,4-8.29,3.27,2,3,0,8-4.25,9.26-2.34-1.45-11.88-2.11-11.11,2.16,2.5-2.52,5.29-1.27,6.9,1.21,0,0,3.54,6.7-4.67,8.29-16.29,3.13-15.53,16.36-15.53,16.36S175.83,121,186,117.08a4.78,4.78,0,0,0-.83,1.25,33.05,33.05,0,0,1,4.69-1.45,8.37,8.37,0,0,1-.69,1.37,16.5,16.5,0,0,0,11.44-13.68S199,98,207,97.63C209.13,96.53,209.92,95.9,209.92,89.92Z"/><path class="cls-6" d="M198.06,195.34a2.26,2.26,0,0,0-1.19.65,19,19,0,0,1,2.32-9,7,7,0,0,0-1.21.14c1-2.38,2.75-4.17,3.73-5.67,7.48-11.28-7.89-23.25-7.89-23.81v1.9s-4.94-5.55-5.48-7.53a6.42,6.42,0,0,0-1,2.52s-4.16-4.5-3.3-7.83c.92-2.19,4.87-6.18,10-6.43-7.4-1.12-13.92,3.17-15.14,5.6-7.88,1.65-12.48,6.57-16.06,11-4.23,5.29.21,9.62-3.5,12,.15.54,1.28.94,2.66-1.32-.08-.47.07-2.74,0-3.35-.46-2.38,1.36-5.73,7.54-10a26.38,26.38,0,0,1,10.08-4.54s1.55,4.57,10,10.49c-.36-1.34-.28-1.45-.28-1.45s4,1.59,5.36,4.81a9.39,9.39,0,0,0-.19-1.83c3.3,4.79,4.92,9.13,4.39,12.76-.44,2.89-2.46,4.55-5.11,7.73-5.22-.6-19.79-2-16.33,18.77.21,2.67-10.7,4.06-19.49,5.41-3.67.57-3.88,2.49-8.94,2.21.52,1-.93,2.57,9.46,1.25,2,.65,2.31,2.62,2.92,2.76,1.12.26,1.12-3.22,2.45-3.19,1.09,0,3.65,3.87,4.83,4.25a22.89,22.89,0,0,1,.76-4.72,9.1,9.1,0,0,0,4.05,2.89,6.67,6.67,0,0,1,1.19-4.06c1.24-1.36,3.08-1,3.52-1.43,1.23-2.94-1.53-8.67.85-12.39s5.65-3.42,11.38-3.67c-1.13,6.42,6.53,18.15,16.77,22.75A27.54,27.54,0,0,1,198.06,195.34Z"/><path class="cls-6" d="M173.6,93.27s.32,2-2.77,6.71c-1.18,1.8-.93,12.34-1.56,15.76-.12.61-3.48,5-3.83,7.52-.16-.07-1.22,1.12-1.4.78.32-1,.32-2.7,0-2.94a3.4,3.4,0,0,1-1,1c0-.44.32-1,.32-1.73-.39.38-.51.63-.9,1a15.12,15.12,0,0,0,.33-3.29c0-3.45,3.42-21,3.42-21s.84-4,3-4S173.6,93.27,173.6,93.27Z"/><path class="cls-6" d="M221.34,187.93a12.74,12.74,0,0,0,3.94.41,1.23,1.23,0,0,1-.63-.78c2.94.35,6-1.59,6.43-2.61a1.7,1.7,0,0,1-1.11-.14c5.37-4.56,3.14-19.73-1.16-30.88,6.53,8.51,9.13,24.35,6.18,31.55-1.58,3.83-2.84,5.88-8.77,5.88a56.35,56.35,0,0,1-6.63-.22A21.68,21.68,0,0,1,221.34,187.93Z"/><path class="cls-6" d="M219.15,211.2c3.16,6.19-1,15.91-1.31,21-.21,3.22-.13,5.5-1.26,6.51,1.77-.34,2.36.36,3.39-1.14s1.1-4.24,1.65-4.8,2.61-.53,3.75-.8c0-1.51-3.72-4.19-3.72-4.19a21.37,21.37,0,0,1,4.23.17c0-1.8-3.18-4.59-3.18-4.59s.21-.32,4.78-.32c-.88-2-4.17-3.18-4.17-3.18a11.69,11.69,0,0,0,.43-4.63C223,214,221.17,213.23,219.15,211.2Z"/><path class="cls-7" d="M192.28,90.83a7.07,7.07,0,0,1-3.13.22c3.21-.41,3.41-3,2.36-4.07,1.9.38,3.2,1.6,3.2,2.71s.71,1.77-2.14,2.85c-1.78.68-7.61,2.88-8.48-1.29C185.68,92.83,190.82,92.82,192.28,90.83Z"/><path class="cls-6" d="M213.28,86.86l.47,1.73a11.4,11.4,0,0,0,5-1.84c1.94-1.5,4.92-5.13,4.56-5.49a3.18,3.18,0,0,0-1.56-.65C220.19,85.75,213.28,86.86,213.28,86.86Z"/><path class="cls-7" d="M157.77,170a4,4,0,0,1-5,2.42c-.15,0-.08.2-.24.17,5,2.28,6.19-1.18,6.55-1.94A1.93,1.93,0,0,1,157.77,170Z"/><path class="cls-6" d="M187.5,43.61c-1.67.86-3.94,3-2.13,4S187.5,45.72,187.5,43.61Z"/><path class="cls-6" d="M183.65,44.81c-1.69.87-4,3-2.15,4S183.65,46.93,183.65,44.81Z"/><path class="cls-6" d="M183.28,50.4c-1.68.88-4,3.05-2.13,4S183.28,52.53,183.28,50.4Z"/><path class="cls-6" d="M178.91,54.34c-1.69.87-4,3-2.14,4S178.91,56.48,178.91,54.34Z"/><path class="cls-6" d="M175.91,64.48c-1.68.87-4,3-2.15,4S175.91,66.6,175.91,64.48Z"/><path class="cls-6" d="M179,59.44c-1.68.87-3.95,3-2.13,4S179,61.56,179,59.44Z"/><path class="cls-1" d="M91.91,198.24s5.46-4.11,6.23,2.07a5.5,5.5,0,0,1,1.8,1.76c1.3,3-1.71,7.75-4,7.75a41.81,41.81,0,0,1-5.48-.51Z"/><path class="cls-1" d="M85.53,163s-2,3.6-.31,5.28S87.41,170,87.41,170a8.31,8.31,0,0,0,2.68,2.94c1.82,1.17,5.13.82,5.13.82s.5,1,2.47.69,3.26-4.67,3.26-4.67a3.43,3.43,0,0,0,2.23-1,3,3,0,0,0,.1-4.16h0c-1.27-1.26-2.47-1.25-2.94-2.71s0-3.88-1.83-6.52S92,149.3,92,149.3Z"/><path class="cls-4" d="M33.51,94.39s.82,5.36,3.11,7.35a39.92,39.92,0,0,1,4.65,5.16,5.7,5.7,0,0,0,1.52-3.31c1.41.55,2.8,3.79,2.8,3.79s2-1.35,1.74-2.43c.4,0,2.11,1.71,3.33,1.2,0,2.64,1.92,7.26,4,8-.19-.71,2,1,2.08.67,1.47,1.46,3.52.24,5.36.74C73.88,119,74.43,130.42,77.21,133c7.62,7,8.28,8.14,11.87,13.4.5,2.84,11.39,6.63,11.39,14.72,0,1.12.75,2.79-3.25,4.54-.33,1.4-2.06,1.91-3.71,2.24-1-3.07-3.08-2.6-3.82-2.18-1.45-2.83-4.06-1.93-4.8-.13.59-2,.42-3.14-.06-4s-8.3-9.48-12.16-10.7S67.38,149,64.75,149c.45,3.47-2.15,6.21-5.89,9.73a9.55,9.55,0,0,0-.21-3.37,16.63,16.63,0,0,0-5.41,6.27,6.13,6.13,0,0,0-.41-2.28c-4.08,6-9.49,18.27.56,22.72,0-3.24,2.81-11.66,8.72-11.66S76,172.76,79,178.66c1.43,2.75,1.79,8,1.79,13.12-.43,2.53.35,8.78,11.12,5.69-.13.28,1.58-.75,1.76.08-1.21.21-1.81,1-2.07,2.92.07.47,1.68-.53,1.79-.05-1.08.07-1.68,2.08-1.16,3.08-2.36,1.88,1,3.26-1.09,5.32a5.64,5.64,0,0,0-2.06,1,20.92,20.92,0,0,0-3.34,2.67c-.61-1.6-1.32-3.41-2.59-3.81-.91,1.52-3.81,4.79-4.8,4.49-.8-.25-.15-1.84-.66-3.72-1.64.87-1.91,1.85-4,2.27-.37-2-.48-3.11-1.37-4.33A5.65,5.65,0,0,0,69,206c4.36-20.33-9.88-16.55-11.86-14.58C58,201.68,39.45,213,37,216.14c-1.18,1.53-3.11,15.47,4.32,14.39.34.1,1.17-.16,1.41,0s0,.3.09.39a1.47,1.47,0,0,1,.46,1.55c-.08.9-2.67,1.65-2.48,3.49-2.9,0-3.05,4.85-3.05,4.85s-7.1-1.13-10.65-3.28c-1.62-1-1-3.67-1.66-4.8s-2.52-.8-3.74-.8c0-1.52,3.73-4.19,3.73-4.19l-4.54.89s1.49-4.09,3.92-4.84c-.79-.8-4-1.19-5.34.11-.36-2.24,4-3.62,4-3.62s-1-4.25-.07-5.22a10.23,10.23,0,0,1,1.69-1.22,16.73,16.73,0,0,0,4.63-5.27c1.82-2.89,4.18-9.21-.91-16.4-2.35-3.32-1.81-.29-5.48-.49s-16.13-1.84-10.79-24.06a78,78,0,0,1,6.31-17.18c3.65-7.76,5.94-9.36,6.61-16.74.58-6.67-1.4-11.31-4.54-12.13s-8.43-.14-7.16-2.61c1.21-2.31,3.93-3.38,7.29-2.16s10,5.79,10,11.26c0,17.19-7.15,19.47-11,34.39-1.38,5.39-2.76,15.21.53,18.49,1.57,1.56,2.79.33,3.5-.37s3.79-8.74,6.49-15.3c1.12-2.75,4-6.88,6.43-11.17.3-.52,1-1.88,1.32-2.37a55.68,55.68,0,0,1,5.17-11.49l-.61-14.62s-4.31-4.43-9.14-9.26S25.28,94,26.28,93,27,88.4,27,88.4s-3-2.64-3-5.84c4.71,6.09,8.16,5.61,9.5,5.61C32.47,90.62,33.51,94.39,33.51,94.39Z"/><path class="cls-4" d="M73.49,93.27s2.79,8.44,3.39,11.07,1,12.24,1,12.24,3.44,3.13,5.57,12.81c7.76,0,7.2-7.2,7.2-9.78s-2.83-14.09-3.3-19.84a18.75,18.75,0,0,0-.61-4.41c-2.14,1.38-3.71-.75-4.42-1.94a4,4,0,0,0-.23,1.71c.1,2.25.26,5.63.55,7.57a6.78,6.78,0,0,1-2.69.88l-1.54-7.85Z"/><path class="cls-5" d="M67.52,94.34a3,3,0,0,1-1.82,2.84,18.66,18.66,0,0,1-5,1c-2,.2-6.4.41-6.4.41A3.82,3.82,0,0,1,56.5,97a21.58,21.58,0,0,1,4-.77c1.37,0,3.48.49,4.85-.43A23.11,23.11,0,0,1,67.52,94.34Z"/><path class="cls-7" d="M81.81,94.06a34.07,34.07,0,0,0,.24,3.42c.21,1.92.51,4,.64,5.21s-3.35.53-3.35.53l-1-8.34Z"/><path class="cls-6" d="M79.48,77.55a7.21,7.21,0,0,0-4.19-.07C72,49.25,61.16,34,42.78,39.16c0-2.31,6-4.08,8.08-4.08,13.08,0,20.89,13.4,22.64,16.9C79,63.09,79.48,77.55,79.48,77.55Z"/><path class="cls-4" d="M46.39,100.4a1.24,1.24,0,0,1,.1.2A1.24,1.24,0,0,0,46.39,100.4Z"/><path class="cls-4" d="M33.85,86.86c.67-1.13,3.52-3.94,5.31-3.94a11.18,11.18,0,0,0-3.55,7.81c-.19,1.11,1.09.13,1.09.13s1.29,6,3.43,6a6.24,6.24,0,0,1,2.11.12h0l1.82.78h0a7.31,7.31,0,0,1,2.36,2.64,5.5,5.5,0,0,1,.38-5.55c.26-.35,1.34,4.71,1.73,4.38.53-4.49,1.6-6.2,5.27-7.14-2.9-1.39-.21-4.67,1.88-5.11,3.19-.69,8,.5,8,.5s1.72-.34,2.14-1.49-.13-1.43-1.06-2.36S57.16,81,57.16,81,55.5,78.79,54,78.39s-8-2-13.11-1.15C38.4,77.66,32,79.82,32,79.82L35.39,81a34.26,34.26,0,0,0-7.24-1.22c-2.7,0-4.1,1.07-1.35,3.51A14.36,14.36,0,0,0,33.85,86.86Zm11.3-3.38c5.15-3.43,8.29.15,8.29.15s-.35.64-.87,1.51a6.78,6.78,0,0,1-4.79,2.73C45.15,88,42.41,85.34,45.15,83.48Z"/><path class="cls-6" d="M123.54,240.34c-19.52.82-39.19-5.4-42.54-6.79,0-2.44.27-4.18,2.31-6.22s3.81-4.31-.12-8.25c-6-6-38.51-10.34-38.51,11.17,0,9.36.67,7.58-3.72,12s-6.6,2.43-9,2.43c4.74,4.06,8.19,8.12,9.77,11.75,16.07,2.45,7.58-17.55,11.3-21.26s6.58-3.74,12-1.5a46,46,0,0,1-2.17,8.09s7.84,16,60.66,16.88C126.73,250.05,123.54,240.34,123.54,240.34Z"/><path class="cls-4" d="M65.79,241.34c.65,1.11,3.91,4.17,9.82,3.26-2.6-.68-7-2.88-7.45-4.42,5,2.44,8.78,1.53,8.78,1.53s-6.78-2.13-7.86-4.43a30.16,30.16,0,0,0,8.42.71s-6.07-1.49-8.13-4.23a15.7,15.7,0,0,0,9.06,1.33S71.28,233.6,68.28,229A41.42,41.42,0,0,1,65.79,241.34Z"/><path class="cls-4" d="M73.28,222.11c6.54,6.53,12.37,3.93,11.89,2.27-.67-2.33-3.8-4.66-9.2-4.93,4.61,1.28,5.94,3.87,5.94,3.87a15.11,15.11,0,0,0-7.15-2.22,21.76,21.76,0,0,1,5.58,3.77A19.57,19.57,0,0,0,73.28,222.11Z"/><path class="cls-4" d="M45,230.18s-.45-9.27,8.85-8.54c-4.92,1.2-5.28,4.15-5.28,4.15s2-2.74,8.09-1.57c-5.9,0-7,3.36-7,3.36a10.93,10.93,0,0,1,9.34-1c-6.69,0-7.74,3.62-7.74,3.62s3.46-4.19,11.38-.64c-12.95-3-10.19,7-10.19,7s-.66,13.64-1.83,14.82c-.42-7.82-4.54-11.37-4.54-11.37s-.75,7-8.29,4.77A8.24,8.24,0,0,0,41,242.35l1.64-1.63a11.58,11.58,0,0,0,2.54-.82c1-.5,1.62-3.55,1.62-3.55L48,235.14s-.78-3.53-1.29-4a4.66,4.66,0,0,0-1.71-.85"/><path class="cls-4" d="M83.08,226.64l-2.54,6.8s-7.81-4.16-9.74-5.59-4.25-3-4.66-4.56-1.62-3.65,1.22-3.24,6.64,3.5,7.4,4.26S83.08,226.64,83.08,226.64Z"/><path class="cls-8" d="M76.63,77a1.54,1.54,0,0,0-1.34.51c-1.19-3.89-9.42-9.77-13.88,0-1.19-8.8,3.08-10.13,7.45-10.13-4.67-3.27-10.24-3.51-14.55.8,0-4.87,5.19-7.77,11.48-6.53-2.43-3.15-8.33-3.42-14.78.74,4.11-5.88,7.77-6.45,12-6.56C55,54.08,53,54.3,46.47,58c2.08-5.73,9.15-7.42,13.41-6.64-5-2.66-13.12-2.2-15.39.56,3.72-3.73,7.92-6.68,13.29-5.13-3.31-2.36-11.16-3.35-16.34.93C43.58,43,52,38.79,57,41.76c-6.34-3.9-16.21-1.63-17.38,0C59.08,26.79,75.9,50.76,76.63,77Z"/><path class="cls-6" d="M37.16,89.92a4,4,0,0,0,1.53,2.57,1.69,1.69,0,0,1,.06-1.63c1.27,3.55,6.58,4,8.3,3.27-2,3,0,8,4.25,9.26,2.35-1.45,11.88-2.11,11.13,2.16-2.51-2.52-5.3-1.27-6.91,1.21,0,0-3.54,6.73,4.67,8.31a31.75,31.75,0,0,1,4.89,1.12c11.44,4.46,10.64,15.22,10.64,15.22S71.26,121,61.09,117.08a4.57,4.57,0,0,1,.84,1.25,33.74,33.74,0,0,0-4.68-1.45,7,7,0,0,0,.68,1.37,16.53,16.53,0,0,1-11.44-13.69s1.63-6.55-6.44-6.93C38,96.53,37.16,95.9,37.16,89.92Z"/><path class="cls-6" d="M49,195.34a2.2,2.2,0,0,1,1.18.65,19.1,19.1,0,0,0-2.32-9,7.24,7.24,0,0,1,1.22.14c-1-2.38-2.75-4.18-3.72-5.67-7.49-11.28,7.88-23.25,7.88-23.81v1.9s5-5.55,5.48-7.53a6.42,6.42,0,0,1,1,2.52s4.15-4.5,3.3-7.83c-.92-2.19-4.87-6.18-10-6.43,7.4-1.12,13.92,3.17,15.14,5.6,7.89,1.65,12.49,6.57,16.06,11,4.23,5.3-.2,9.63,3.51,12-.14.54-1.28.94-2.66-1.32.08-.47-.08-2.74,0-3.35.46-2.38-1.37-5.73-7.54-10a26.56,26.56,0,0,0-10.09-4.54s-1.55,4.57-10,10.49c.37-1.34.29-1.45.29-1.45s-4,1.59-5.37,4.81a7.5,7.5,0,0,1,.2-1.83c-3.3,4.79-4.92,9.13-4.39,12.76.43,2.89,2.47,4.55,5.11,7.73,5.22-.6,19.8-2,16.33,18.77-.21,2.67,10.7,4.06,19.48,5.41,3.68.57,3.89,2.49,8.95,2.21-.52,1,.92,2.57-9.46,1.25-2,.65-2.32,2.62-2.91,2.76-1.14.26-1.14-3.22-2.46-3.19-1.09,0-3.66,3.87-4.83,4.25a24.32,24.32,0,0,0-.76-4.72,9.16,9.16,0,0,1-4.05,2.89,6.74,6.74,0,0,0-1.19-4.06c-1.24-1.36-3.09-1-3.53-1.43-1.23-2.94,1.53-8.67-.83-12.39s-5.66-3.42-11.39-3.67c1.14,6.42-6.53,18.15-16.78,22.75A27.68,27.68,0,0,0,49,195.34Z"/><path class="cls-6" d="M73.49,93.27s-.32,2,2.77,6.71c1.18,1.8.93,12.34,1.56,15.76.11.61,3.48,5,3.82,7.52.17-.07,1.23,1.12,1.4.78-.31-1-.31-2.71,0-2.94a3.4,3.4,0,0,0,1,1c0-.44-.32-1-.32-1.73.38.38.5.63.91,1a13,13,0,0,1-.33-3.29c0-3.45-3.42-21-3.42-21s-.85-4-3-4S73.49,93.27,73.49,93.27Z"/><path class="cls-6" d="M25.75,187.93a12.66,12.66,0,0,1-3.92.43,1.34,1.34,0,0,0,.62-.78c-2.94.35-6-1.59-6.44-2.61a1.71,1.71,0,0,0,1.11-.14C11.75,180.27,14,165.1,18.29,154c-6.54,8.51-9.13,24.35-6.17,31.55,1.56,3.84,2.82,5.84,8.75,5.84a56.67,56.67,0,0,0,6.64-.22A22.48,22.48,0,0,0,25.75,187.93Z"/><path class="cls-6" d="M27.94,211.2c-3.16,6.19,1,15.91,1.31,21,.21,3.22.13,5.5,1.26,6.51-1.77-.34-2.37.36-3.39-1.14s-1.1-4.24-1.66-4.8-2.6-.53-3.74-.8c0-1.51,3.73-4.19,3.73-4.19a21.55,21.55,0,0,0-4.25.17c0-1.8,3.18-4.59,3.18-4.59s-.2-.32-4.78-.32c.89-2,4.17-3.18,4.17-3.18a11.16,11.16,0,0,1-.41-4.63C24.07,214,25.91,213.23,27.94,211.2Z"/><path class="cls-6" d="M54.81,90.83a7.15,7.15,0,0,0,3.12.22c-3.2-.41-3.4-3-2.35-4.07-1.9.38-3.2,1.6-3.2,2.71s-.72,1.77,2.13,2.85c1.78.68,7.61,2.88,8.48-1.29C61.41,92.83,56.28,92.82,54.81,90.83Z"/><path class="cls-6" d="M33.79,86.86l-.48,1.73a11.36,11.36,0,0,1-5-1.84c-1.94-1.5-4.9-5.13-4.56-5.49a3.18,3.18,0,0,1,1.56-.65C26.9,85.75,33.79,86.86,33.79,86.86Z"/><path class="cls-7" d="M89.33,170a4,4,0,0,0,5,2.42c.15,0,.07.2.23.17-5,2.28-6.19-1.18-6.54-1.94A2,2,0,0,0,89.33,170Z"/><path class="cls-6" d="M59.58,43.61c1.67.86,4,3,2.14,4S59.58,45.72,59.58,43.61Z"/><path class="cls-6" d="M63.44,44.81c1.68.87,4,3,2.15,4S63.44,46.93,63.44,44.81Z"/><path class="cls-6" d="M63.83,50.4c1.67.88,4,3.05,2.14,4S63.83,52.53,63.83,50.4Z"/><path class="cls-6" d="M68.19,54.34c1.67.87,4,3,2.14,4S68.19,56.48,68.19,54.34Z"/><path class="cls-6" d="M71.19,64.48c1.68.87,4,3,2.13,4S71.19,66.6,71.19,64.48Z"/><path class="cls-6" d="M68.12,59.43c1.66.88,3.95,3.06,2.13,4S68.12,61.56,68.12,59.43Z"/><path class="cls-3" d="M138.38,243.69a1.61,1.61,0,0,0-.72-.26c-.07-.17-.11-.33-.16-.49l2.6-.27c0,.28.84,8.1,1.12,10.75a1.73,1.73,0,0,0,.74.26l.14.5c-.56.06-2.09.22-2.59.26C139.38,253.2,138.65,246.2,138.38,243.69Z"/><path class="cls-3" d="M148.13,248c-.09-.57-.11-1-.16-1.45-.11,1-.57,4.36-.62,4.79l-1.17.17-2-4.41s.15.68.26,1.46c0,0,.7,4.73.78,5.23-.16,0-2.29.34-2.43.36v-.51a1.84,1.84,0,0,0,.65-.43c0-.29-1.1-7.52-1.44-9.87a1.91,1.91,0,0,0-.76-.23c-.05-.13-.12-.34-.18-.48l2.82-.42c.31.69,2.46,5.3,2.46,5.3l.8-5.77,2.69-.41v.51a1.56,1.56,0,0,0-.65.45c0,.16,1.41,9.54,1.45,9.86a2.17,2.17,0,0,0,.76.23,1.64,1.64,0,0,0,.18.49c-.5.06-2,.28-2.6.38Z"/><path class="cls-3" d="M134.6,249.49V248c-.19,1-.94,4.28-1,4.72a6,6,0,0,0-1.17.07c-.22-.58-1.67-4.56-1.67-4.56s.1.69.15,1.46c0,0,.29,4.77.32,5.29l-2.45.14a1.61,1.61,0,0,1,.06-.5,2.1,2.1,0,0,0,.69-.37c0-.3-.45-7.6-.59-10a1.88,1.88,0,0,0-.74-.29,2.83,2.83,0,0,1-.13-.5l2.85-.17c.25.72,2,5.49,2,5.49l1.31-5.68,2.71-.17a3.42,3.42,0,0,1-.08.51,1.6,1.6,0,0,0-.68.39c0,.16.57,9.62.59,10a1.69,1.69,0,0,0,.72.29,2.8,2.8,0,0,0,.14.51l-2.62.14Z"/><path class="cls-3" d="M117.8,249.72c0-.59.08-1,.11-1.46-.29,1-1.38,4.16-1.51,4.58l-1.19-.06-1.16-4.71v1.48s-.21,4.77-.24,5.29l-2.44-.11a2.08,2.08,0,0,1,.12-.5,2,2,0,0,0,.72-.3c0-.28.33-7.6.45-10a1.93,1.93,0,0,0-.71-.37,4.5,4.5,0,0,0-.08-.51l2.84.13c.19.74,1.42,5.66,1.42,5.66l1.88-5.53c.76,0,2.37.12,2.72.13-.06.19-.09.33-.13.5a1.34,1.34,0,0,0-.72.31c0,.15-.44,9.63-.44,9.95a1.5,1.5,0,0,0,.69.37,1.2,1.2,0,0,0,.08.52c-.5,0-2-.1-2.63-.12Z"/><path class="cls-3" d="M104.73,243.26a1.77,1.77,0,0,0-.66-.42v-.51l2.6.32c0,.29-1,8.09-1.33,10.73a1.56,1.56,0,0,0,.67.42v.51l-2.6-.32C103.56,252.75,104.43,245.76,104.73,243.26Z"/><path class="cls-3" d="M78.68,248.12l-2.49-.91.27-.45a1.71,1.71,0,0,0,.78,0c.3-.84.89-2.42,3.46-9.37a2,2,0,0,0-.55-.56,1.23,1.23,0,0,1,.08-.51l2.5.93-1.67,4.47c.52-.48,3.35-3.09,4-3.63l2,.73c-.09.15-.18.31-.27.44a1.61,1.61,0,0,0-.69.1c-1.17,1-2.18,2-3.62,3.3.12,1.64.47,5.7.51,6.21a1.24,1.24,0,0,0,.48.51c0,.14-.06.36-.07.51l-2.27-.84c-.09-1-.41-4.62-.52-5.9Z"/><path class="cls-3" d="M91.71,240c0,.75-.12,10.81-.12,11.12a1.23,1.23,0,0,0,.54.47v.51c-.25-.06-2.11-.51-2.35-.58v-3l-2.41-.59S86.2,250.2,86,250.61l-2-.5a3.26,3.26,0,0,1,.2-.48,1.16,1.16,0,0,0,.68-.18c.16-.31,4.84-9.53,5-9.9Zm-3.62,6.45,1.69.41c.06-1.88,0-3.78,0-3.78S88.94,244.73,88.09,246.41Z"/><path class="cls-3" d="M99.73,248c.11-.57.21-1,.31-1.43-.44,1-1.9,4-2.09,4.36l-1.15-.2c-.08-.61-.58-4.82-.58-4.82s-.07.7-.2,1.46c0,0-.8,4.72-.89,5.23l-2.41-.42a1.77,1.77,0,0,1,.18-.47,2,2,0,0,0,.75-.21c0-.3,1.28-7.5,1.67-9.83a1.8,1.8,0,0,0-.64-.46v-.52l2.79.49c.11.75.71,5.78.71,5.78l2.56-5.23,2.67.45c-.07.18-.12.33-.18.49a1.39,1.39,0,0,0-.75.21c0,.16-1.63,9.5-1.68,9.82a1.42,1.42,0,0,0,.65.45v.52l-2.58-.44Z"/><path class="cls-3" d="M124,249.7v3.87h3.42c-.09.38-.29,1.27-.36,1.59H121.4a2.43,2.43,0,0,1,.1-.51,1.71,1.71,0,0,0,.71-.33v-10a1.75,1.75,0,0,0-.71-.35,3.45,3.45,0,0,0-.1-.51h5.88c-.1.49-.27,1.28-.35,1.59h-2.87v3h2.87c-.08.45-.26,1.22-.35,1.58Z"/><path class="cls-3" d="M157.62,240.34a1.71,1.71,0,0,0-.77-.15c-.09-.15-.16-.31-.25-.45l2.54-.69c.07.27,2.15,7.86,2.84,10.43a1.86,1.86,0,0,0,.78.13,4,4,0,0,0,.24.46l-2.54.69C160.13,249.58,158.28,242.8,157.62,240.34Z"/><path class="cls-3" d="M151.28,241.88a2.18,2.18,0,0,0-.75-.19c-.07-.16-.16-.34-.2-.47l3-.61c1.58-.32,3.32,0,4,3.23s-.83,4.07-2.41,4.38l-.46.1.78,3.79-2.57.52v-.51a1.83,1.83,0,0,0,.63-.47C153.2,251.22,151.28,242.09,151.28,241.88Zm1.92.36.93,4.52.46-.09c.81-.16,1.31-.63.93-2.45s-1.06-2.24-1.86-2.08Z"/><path class="cls-3" d="M167.22,243.69a16,16,0,0,1-.84-1.89s-1.58-4.46-1.67-4.69c.16-.07,2-.72,2.32-.84a2.83,2.83,0,0,0,.08.52,1.7,1.7,0,0,0-.57.56l3.36,9.39a1.72,1.72,0,0,0,.78.06c.09.15.17.3.25.46l-2.3.81-5.22-6s.43.88.72,1.7l1.88,5.29-2.3.82a4.88,4.88,0,0,0-.08-.51,2.39,2.39,0,0,0,.55-.55s-3.3-9.19-3.36-9.38a1.49,1.49,0,0,0-.78-.09l-.28-.44,2.57-.91Z"/><path class="cls-3" d="M217.92,242c-1.75,2.4-7.82,2-10,.3a13,13,0,0,1-4.43-10.63c.95-9.3-5-15.92-15.75-17.7s-25,2-26.77,9.59c-.73,3.06,3.07,3.71,4.37,9.13-10.3,4.23-23.37,6.63-41.81,6.66S92,236.9,81.7,232.67c1.3-5.42,5.1-6.07,4.38-9.13-1.81-7.6-15.83-11.4-26.77-9.59s-16.71,8.4-15.76,17.7a13,13,0,0,1-4.42,10.63c-2.16,1.73-8.22,2.1-10-.3-.58.58.22,2.33,1.89,3.22,2.81,1.48,8.61,8.47,9.85,11.65,11.93,3,11.26-7.33,11.26-11.19,0-6.81,1-10.68,3.21-12.16,1.74-1.18,4.48-1,8.58.52a28.09,28.09,0,0,1-2,7.14l-.13.3.09.32c6.41,9.47,30.15,17.46,61.58,17.46h0c31.42,0,55.16-8,61.58-17.46l.09-.32-.13-.3a28.09,28.09,0,0,1-2-7.14c4.1-1.54,6.85-1.7,8.6-.52,2.18,1.48,3.2,5.35,3.2,12.16,0,3.86-.67,14.2,11.25,11.19,1.25-3.18,7-10.17,9.86-11.65C217.7,244.34,218.49,242.56,217.92,242Zm-53.24-14.72a14.47,14.47,0,0,0,10.26-4.47c1.64-1.62,3.7-2.51,4.94-2.12.81.25.94.76.83,1.19-.18.85-1.4,3.29-8.57,7.48a54.78,54.78,0,0,1-5.34,2.73A14.61,14.61,0,0,0,164.68,227.26Zm-84.4,4.81a53.66,53.66,0,0,1-5.34-2.73c-7.17-4.19-8.39-6.63-8.57-7.48-.11-.43,0-.94.81-1.19,1.25-.39,3.33.5,5,2.12,3.15,3.16,7.29,4.62,10.26,4.47A14.49,14.49,0,0,0,80.28,232.07ZM54.34,232c-2.76,1.88-4,6.1-4,13.67,0,4.63-.64,7.19-2.17,8.52-1.2,1.06-3.11,1.45-5.82,1.18-1-2.39-4.23-6.46-7.67-9.6a9,9,0,0,0,5.59-2,15,15,0,0,0,5.11-12.25c-1.21-11.86,9.55-15,14.24-15.73,9.19-1.51,19.22,1,23.09,5.34,2.39,2.68,1.58,3.76,1.13,4-1.75,1-6.78,0-10.4-3.59-2.31-2.3-5.42-2.86-7.19-2.23a2.58,2.58,0,0,0-1.73,2.78,67.05,67.05,0,0,1-.32,10.12c-4.47-1.65-7.63-1.71-9.83-.21Zm128.94,9.54c-7.57,9-30.89,15.92-59.69,15.92s-52.13-7-59.72-15.92c2.21-5.16,2.63-12,2.63-16.2a34.33,34.33,0,0,0,7.57,5.59c11.4,6.67,27.93,10.24,49.51,10.24h0c21.59,0,38.1-3.57,49.5-10.24a34.8,34.8,0,0,0,7.57-5.59C180.64,229.56,181.06,236.34,183.28,241.53Zm21.46,13.81c-2.71.27-4.62-.12-5.82-1.18-1.54-1.33-2.18-3.89-2.18-8.52,0-7.57-1.24-11.79-4-13.67-2.22-1.5-5.38-1.44-9.88.18a64.53,64.53,0,0,1-.32-10.12,2.58,2.58,0,0,0-1.74-2.78c-1.75-.63-4.87-.07-7.17,2.23C170,225.1,165,226,163.24,225.07c-.47-.25-1.28-1.33,1.11-4,3.88-4.36,13.9-6.85,23.09-5.34,4.69.77,15.46,3.87,14.25,15.73a15,15,0,0,0,5.11,12.25,8.89,8.89,0,0,0,5.59,2C209,248.9,205.78,253,204.74,255.34Z"/><path class="cls-1" d="M208.28,236c-.16-.83-.12-2-1.64-2a1.38,1.38,0,0,0-.49-1.89,1.4,1.4,0,0,0-.63-.19c-.38-1.77-3-1.63-3-1.63s-2.57-.1-2.12,2.09a3.22,3.22,0,0,0-.67,1.36,5,5,0,0,0,.75,3.27c.5,1.06,1.08,2.47,1.48,2.67a6.66,6.66,0,0,0,2.6.66,1.91,1.91,0,0,0,2,1.43,3.28,3.28,0,0,0,2.41-.82S212,236,208.28,236Z"/><path class="cls-3" d="M192.28,184.6C194,181.17,196,180,197,176.39c2.41-8.23-7.49-12.4-14.54-17.43h0c2.4,0,6-5.89,12.48-6.84-7.78,0-11.35,3.54-15,4.9a12.08,12.08,0,0,1-3.62-4.75,17.23,17.23,0,0,1,6.32-1.86c.65-2.68,3.32-7,8.27-9.6-5.41,1.12-8.93,3.93-10.78,6.94-9.62,1.32-17.3,11.07-18.12,14.11a30.52,30.52,0,0,1,11.34-8.52c3.88,7.18,13.63,10.51,19.53,15.69-4.86-.48-18.4.33-23.38,7.49a8.39,8.39,0,0,1,1.31-1.07c3.16,3.3,6,11.67,10.16,11.67-3.77-3.77-1.8-8.59-5.18-14a28.68,28.68,0,0,1,3.55-.86h0c1.34,2,1,9.13,5.33,11.93-1.26-3.16-1-8.59-1.51-11.58C186.83,180.16,191.67,181.43,192.28,184.6Z"/><path class="cls-3" d="M209.45,217.53c.73,2.21,0,9.06-.53,10.83-.67,2.34-5.09,2-5.09,2s3.68,1.58,4.88.38c0,1.35-2.64,1.2-2.64,1.2s2,1.47,3.85.34a2.2,2.2,0,0,1-1.64,1.56,3.36,3.36,0,0,0,3.25-1c1,1-1.78,3-1.78,3s4.21-.61,4.87-2.46a17.94,17.94,0,0,0,.45-8.49,14.09,14.09,0,0,1-2.15,6.12c0-2,.31-5.13-.08-7a19.55,19.55,0,0,1-2.35,6,77.42,77.42,0,0,0,1.16-11.67,7.09,7.09,0,0,1,2.37,1.49c-.29-4-29.13-19.19-22.21-34.11a18.16,18.16,0,0,0-2,3.26c-1.67-.2-7.56-.68-10.35,2.12-5.07,5.08-1.23,13.24-2.39,14.41-.21.21-3,.71-3.33,1.08s-.73,1.65-.73,3.93c-2.33-1.44-2.63-3-3.46-3S168,210,168,211.94c-2.29-1-3.21-4.78-4.21-4.78s-2.72,4.4-2.72,4.4a11.78,11.78,0,0,1-2.34-3.1,27.63,27.63,0,0,0-4.17.38c-3,.56-4.52.08-5.35-1-1.81-1.8.25-3.32.8-3.87,2.12-1.53,4.06-1.15,5.11-.08,0-.23,1.32.45,5.06-.79a15.85,15.85,0,0,1-5.23-.31c-.57-1.53-2.86-1.72-4.24-.87a9.46,9.46,0,0,0-3.44,3.12c-1-3.83,5.83-6,7.32-3.83,1.68.82,3.47.5,6.77-.11-3,0-5.6-.45-6.31-1.14-1.52-1.52-5-1-5.9-.09,2.88-4.14,5.77-1.35,6.9-.48,3.73,1.09,7.2-.39,9.48-1a2.61,2.61,0,0,0,2-2.57c0-3.46-.36-10.5.38-15.29a10.62,10.62,0,0,1,.74-2.88c-2.67,2.3-3.24,13.62-3.23,17.12a2.6,2.6,0,0,1-1.3,1.92,11.09,11.09,0,0,1-7.48,1.27c-2.74-2.73-8.6-2.38-8.6,2.74a5.39,5.39,0,0,0-2.1,2.9h0a4,4,0,0,0,.79,3.57,1.47,1.47,0,0,0,.66,1.22,5.48,5.48,0,0,0-1,4.89c.84-1.77,2.37-3,2.73-2.81,2.73,1.63,5.21-.31,8.54,0,.63,1.59,2.7,3.28,4.58,4.1a7.71,7.71,0,0,1,1.41-4.45s3.31,4.3,5.9,5.22a12.58,12.58,0,0,1,.39-5.14A23.25,23.25,0,0,0,175.1,214c-1-3.55.42-5.3.42-5.3a26.84,26.84,0,0,1,3.58-1.51c1.52-.44-1.72-10.67,1.39-13.8,2.9-2.88,6.78-2.49,8.56-2.11a10.32,10.32,0,0,0,1.27,7.5C195.16,207.86,209,216.1,209.45,217.53Z"/><path class="cls-3" d="M222.55,81.88s-1.36,5.1-9,6.31c.81,1.93,3,1.79,4.66,1.48l.7-.42a34.54,34.54,0,0,1-1.22,17c-5.81.33-6.7,4.5-15.09,3.23,8.09,4,9.6-.23,13.81,0a34.64,34.64,0,0,1-4.13,6.86c-7.92-.48-12.08-6.52-19.3-6.52,7.56,2.33,6,8.47,15.63,10.45a2,2,0,0,1,.31-.27,39.5,39.5,0,0,0-4.32,4.26,12.46,12.46,0,0,0-6.54-7.14,19,19,0,0,1,3.77,6.87c-4.22-3.06-7.79-10-12.8-8.19,4.65.68,8.16,10,13.68,12.35a30.08,30.08,0,0,1,.15,4.65c-5.19-3-9-9.39-16.27-8.67,6.7,1.77,9.51,9.65,15.87,12.57-.11.68-.23,1.29-.34,1.81-6.65-.2-10.45-5.27-17,1.34,6.09-3.07,11.68,1.46,16.58.93.2.27.82,1.05,1.73,2.32-6.36.94-10.06,6.75-16.79,6.29,6.82,2.79,14-3,19.07-3,.66,1,1.38,2.12,2.14,3.36-4.63,2-9.8,6.49-19.33,8,10,2.27,16.28-3.36,20.84-4.89a16.19,16.19,0,0,1-1.21-3.24h0a59.07,59.07,0,0,0-3.49-9.08,35.13,35.13,0,0,0,1-11.91c.5-3,2.62-4.38,6-7.71,5.58-5.56,12-15.92,8.73-32.67h0a14.67,14.67,0,0,0,4.87-7.42,11.14,11.14,0,0,0-6.6-1C222.86,80.34,222.55,81.88,222.55,81.88Z"/><path class="cls-3" d="M192.75,90.62a38.12,38.12,0,0,1-7.4-.06C187.93,93.15,192.75,90.62,192.75,90.62Z"/><path class="cls-3" d="M184.56,88.34c2.39,2.4,5,.83,6.08.31A38.53,38.53,0,0,1,184.56,88.34Z"/><path class="cls-3" d="M196.61,77.62c8.94-1.13,15,1.91,16.35,2.71a4.58,4.58,0,0,0-1.13.71,36.44,36.44,0,0,1,4.43-.84l.54-.06s-.52-.36-1.42-.86c.33-1.16,1-3.89.42-4.48-2,1.13-3.4,2.08-4.33,2.72A20.69,20.69,0,0,0,196.61,77.62Z"/><path class="cls-3" d="M194.7,78c-2.69.58-4,1.46-4.46,2.38-1.62.34-4.6,1.1-5.84,2.33,2.84-.55,4.82-.82,5.8-.94A3.66,3.66,0,0,0,193,83.63c1.62,2.94,5.56,4.16,9.25.71h.08c2.19,1.37,1.23,4.09-4.56,5.36,11.25.56,8.22-5.39,5.9-6.58,1.13-2.45-.68-6.06-7.62-3.36,5.09-.59,5.4,1.6,5.27,2.63-2.46-1.32-4.86-2.39-7.28,0C192.28,84.14,189.28,79.83,194.7,78Zm1,5.09a1.37,1.37,0,0,0-.13.59,1,1,0,0,0,.72,1.21,1,1,0,0,0,1.22-.72,1,1,0,0,0,0-.49,1.26,1.26,0,0,0-.68-1.17c.89-.31,2-.18,3.82,1.51-4,2.06-6.08,1.45-6.53-.44a3.3,3.3,0,0,0,1.61-.49Z"/><path class="cls-3" d="M194.68,91.16a3.82,3.82,0,0,1,1.63.31c0-2.49-1.66-5.23-7.37-4.7C193.19,87.06,194.68,88.88,194.68,91.16Z"/><path class="cls-3" d="M150.77,175a1.23,1.23,0,0,0,.72-.66,3,3,0,0,0,1.83.36,6.44,6.44,0,0,0,1.11-.17,3.14,3.14,0,0,0,2.4,1.93,4.2,4.2,0,0,1-.86-2.36,5,5,0,0,0,2.54-2.19c-4.18,2.63-8.14.23-5-2.93a10.77,10.77,0,0,0,.52-6.2,22.14,22.14,0,0,1-2.1,5.64c-2.42,2.14-2.26,4.2-1.19,5.35-2.2-.49-4.83-3.71-1.5-6.61a6.7,6.7,0,0,0,1.24-6c-.54,4-3.48,5.5-4.82,7.57a.63.63,0,0,1-.08.23c-3.93-2.62-.06-4.67.82-6.13,1.48-3,.76-5.62,5.47-9.61a73.12,73.12,0,0,0,5.45-5.26,20.86,20.86,0,0,0,8.35,4.06c-3-1.06-5.26-5-6-6.51,1.21-1.3,2.4-2.62,3.55-3.91.56,1.5,2.21,4.16,7,4.74-3.31-1.7-4.75-6-5.05-7l2.42-2.78c1.21,1.46,4.84,5.41,8.32,5-4.35-2.92-5.5-6.23-6.44-7.19,1.05-1.2,1.79-2.06,2.08-2.33,1.25-5.44,5.26-14.11,14.29-16.75-13.28,1-16.12,15.36-16.12,15.36s-1,1.26-2.56,3.14c-1-2.46,0-7.17,1.19-9.86-1.1,0,0,0-2-.07.86-2.71,3.43-5.62,5.93-8.5a3.25,3.25,0,0,1-2,0s.31-11.5,1.39-14.31c1.57-4.06,2.89-7.17,4.19-8.47a5.21,5.21,0,0,0,1.55-3.93,2.46,2.46,0,0,0-1.87-2.48c.09-1,.12-2,.11-3,1.2-2.72-1-5.14-3.27-5.73,2.65-7.8,12.16-6,13.5,2.56,4-10.33-2.42-12.73-4.78-12.73,1.68-.84,9.32-2.33,12.6,3,.51-9-7-9.32-9-9.46a7.45,7.45,0,0,1,2.84-.52c2.44,0,7.23.46,10.48,3.82a13.35,13.35,0,0,0-10.13-8.23,13.36,13.36,0,0,1,2-.15c3.22,0,8.81,1,12.39,4.13A12.23,12.23,0,0,0,192,50.94c3-.42,8.76-.76,12,2.53a13.74,13.74,0,0,0-9.1-7.38,13.48,13.48,0,0,1,11.52,2.25c-1.68-4.68-6.63-7.7-11.13-8.06C202,39.28,206,40.82,210,44c-13.26-22.08-41-5.74-43.31,33.38a3,3,0,0,0-1.15,2.33c-5.53.6-5.34,4.86-4.94,5.76-4.16,2.74-1.45,9.09-1.45,9.09l.33,7.65a43.39,43.39,0,0,0,1.32-7.84c0-2.76-2-5.09,1.55-8.67-.54-2.06.12-5.31,4.64-4.29.2-.38-.21-2.28,1-3.37a4.89,4.89,0,0,1,3.52-.43c2.11.79,3.35,3.63,2.38,5.11a2.94,2.94,0,0,1,.52,2.19A4.32,4.32,0,0,0,173,83.61c-1.84.77-4.07-.46-4.07-.46S171.08,85,170.24,87a2.72,2.72,0,0,1,.64,2.12,4.67,4.67,0,0,0-2-1.37,3.42,3.42,0,0,1-2.85-.09c1.55,1.55,1.65,2.65,1.32,3.35.23.66.78.5.78,1.65a2.18,2.18,0,0,0-1.53-.59,2.56,2.56,0,0,1-2.32.78,1.73,1.73,0,0,0,.38.62l-.1,7.94,1.13-7a5.87,5.87,0,0,1,1.78,2.5l-.63,5.91s-1.62.72-2.54-.2c.21,2.54,3.61,1.22,3.61,1.22l.61-6.83a7.1,7.1,0,0,0,3.53-2.52,5.42,5.42,0,0,1-1.43,4.08,17.58,17.58,0,0,0-1.33,4.6c-2.72,5.2-8,5.26-9,9.39,3.53-3.52,6.12-2,8.39-4.78-.09.68-.16,1.35-.24,2-3.58,2.88-5,8.72-9.11,11.42,4.59-1,6.45-4.7,8.38-6.68a2.68,2.68,0,0,1-.11.49c-2,7.25-4.36,8.92-5.41,12.62-2.1,0-4-.69-4.69-4.31-.62-3,1.08-12.11,1.57-18.51-2,4.1-5.34,21.12-3.43,23.06.84.83,6.49,6.54,9.15,8.84-4.84,5.81-11.78,13.88-13.94,15-3.42,1.76-4.72,9.49-5.82,10.45-3.6,2-4.43,6.38.24,8.28C145.38,173,148.41,175.5,150.77,175Zm17.39-98.11c.89-13.14,4.48-24.1,10.11-31.33,7.46-9.61,18.4-14,25.55-6.84-1.82-.89-11.32-1.24-15.73,4.13,5.09-2.74,11.58-1.43,13.33,1.53-1.17-.31-9.42-2.2-13.76,3.07,0,0,7.25-2.88,10.4,2-1.46-.39-8.93-1.46-12.79,2.39a11.85,11.85,0,0,1,12.95,3.73c-2.8-1.15-11.44-3.91-15.95.59,0,0,7-1.06,9.34,2.87-6.72-1.72-10.64,1.2-12,3.58,4.66-2.41,9.91-.83,11.29,2.76A9.71,9.71,0,0,0,186,64.08c-2.58,0-8.32,1-10.41,4.54,3.62-2.31,9.32-1.25,9.62,6-4.33-6.85-11.75-3.31-13.65.78a5.16,5.16,0,0,0-.35,1c-.08,0,1.36-20.52,10.57-32.31-10.17,9.25-12.47,32.65-12.47,32.65C168.91,76.79,168.52,76.87,168.16,76.91Z"/><path class="cls-3" d="M158.54,170.94a3.35,3.35,0,0,0,1.84-.31,2.27,2.27,0,0,0,2.45.82,2.59,2.59,0,0,1-1.21-1.69c1.17-1.2,1.7-3.19.22-5.61.58,2.7-1.37,5.26-2.68,4.67s-.57-3.86-2.42-5.21C157.94,166.47,154.73,169.53,158.54,170.94Z"/><path class="cls-3" d="M209.83,89.78c.06,3.59-1.54,6.22-3.48,6.94-3.36,0-5.78,1.85-5.78,5.15,1-2.64,3.37-4.24,6.29-3.35a7.37,7.37,0,0,0,3.77-6.27,2.55,2.55,0,0,1,1.2,2.38c2.12-4.37-.23-9.07-3.89-11.81,1,2.27,3.31,4.31,2.95,7.46A1.26,1.26,0,0,0,209.83,89.78Z"/><path class="cls-3" d="M213.88,84.54A7.56,7.56,0,0,0,219.67,82c-5.41-.46-7.46.6-7.46.6S211.45,84.54,213.88,84.54Z"/><path class="cls-3" d="M228.89,224.34a6.73,6.73,0,0,0-4.31-4.41c.15-2.25-.1-4.11-1.11-5.13a21.12,21.12,0,0,1-.66,4.82c-.4,1.46,2.34,1,3.91,3.1a9.63,9.63,0,0,0-4.3-.32,1.09,1.09,0,0,0-.7,1.38,1.11,1.11,0,0,0,.53.62,5.16,5.16,0,0,1,2.74,3,7.86,7.86,0,0,0-3.44-.7,1,1,0,0,0-.72,1.22,1,1,0,0,0,.28.47,27.76,27.76,0,0,1,3.12,3.11c-4.11-.38-4.27.39-4.33.92a14.36,14.36,0,0,0-.17,3c.24,2.5-4.52,3.25-6.29,3.57a27.07,27.07,0,0,0-4.13,1.29c-1.12,1.12-4.43.75-4.18-.93.48-3.12,1.91-3.34,3.19-3.34-2-1.22-4,.15-4.67,3.15-3.85,0-1.71-5.55,1.25-5.21A3.48,3.48,0,0,0,201,235c-.82-.13-1.59-2.27,1.76-3.24a2.68,2.68,0,0,0-2.18.16c0-.53.46-1.1,1.51-1.51a3.43,3.43,0,0,1,1.56-.09,3.33,3.33,0,0,0-1.5-.16,2.1,2.1,0,0,0-2.45,1.68,1.73,1.73,0,0,0,0,.32,7.33,7.33,0,0,0-.89,3.78,5.15,5.15,0,0,0-.84,3.12c1-2,2.42-2,2.42-2a3.15,3.15,0,0,0,.68,3.23,2.9,2.9,0,0,0,.63,3.67,6.13,6.13,0,0,1,.53-2.89,6.05,6.05,0,0,0,2.08,0,1.31,1.31,0,0,0,1,1.18,6,6,0,0,0,2,3.06,2.65,2.65,0,0,1-.11-2.52c2.64,0,4.12-1.71,6.68-2.13,3.82-.63,8-2.38,8-3.43a28.16,28.16,0,0,1,.34-4c1.06-.54,2.54-.58,5-.08a11.56,11.56,0,0,0-4.32-4.74,8.24,8.24,0,0,1,4.38,1.13,9.85,9.85,0,0,0-3.36-5.62A8.85,8.85,0,0,1,228.89,224.34Z"/><path class="cls-3" d="M232.28,157.83c-5.4-11.62-13-25.19-8.52-33.1,2.86-5.08,8.93-1.62,10.53-4.85,1.28-2.62-10.27-8.78-17.12,3.62-3.32,6-1.88,14.1,1.51,19.49a30.67,30.67,0,0,1-1.23-5l.11.16a4.92,4.92,0,0,1,4.4-.36v-.18a68.78,68.78,0,0,0,2.67,7.36,3.75,3.75,0,0,0-3.47,1.79c2-.33,4.07,1.11,5.08,2,1.75,4,3.65,8.15,5.26,12.28a5.79,5.79,0,0,0-4.29.31,80.67,80.67,0,0,0-7.92-17c10.35,21.76,9.18,33.21,7.14,35.25-1.51,1.52-3.12,1.15-4-1.88S217.83,162.93,210,154c1.13,2.19,2.12,4.22,3,6.11-2,.08-12.53.79-16.17,6.08,4.52-3.34,14.64-2.86,17.79-2.59.72,1.59,1.35,3.07,1.92,4.43-4.26-.1-10.48-1.44-16.72,4.81,7.29-4.4,14.13-.44,17.84-.85l.41-.06c1,2.8,1.68,4.89,2.09,6.43-.11-.12-.22-.24-.35-.36-4.65.74-14.84-3.22-21.07-.17,9.71,0,15.92,5.32,22.87,4.43,3.89,3.33,6.71-.45,7.79-4.14a6.76,6.76,0,0,1,5.75,1.78c-.07.52-.15,1-.27,1.56-.76,3.57-2.16,6.23-4.57,7.74a11,11,0,0,0-2.87-5.64,20.76,20.76,0,0,1-1.56,7,18.25,18.25,0,0,1-4.49-.28,12.05,12.05,0,0,0-.05-3.06c-.9,1-1.7,1.89-2.41,2.81-7-6.23-17.23-3.89-22.18-7,4,6.66,16.17,6.42,19.38,11.14a18.19,18.19,0,0,0-1.4,3.08c-2.93-3.61-15.82-4-17.24-9-.49,7.12,12.87,9.25,16.39,12.92a11.71,11.71,0,0,0,.13,2.71c-2.26.42-7.54.68-12.92-4.16,4.31,7.14,12.12,8,14.42,8a14.83,14.83,0,0,0,5.77,5.23c-4.22-4.2-7.79-12.29-.84-20.86C241.51,196.56,238.34,170.89,232.28,157.83Zm-1-37.64a17.28,17.28,0,0,1-1.9.1,5,5,0,0,0-.91-2.92,6.31,6.31,0,0,1,3.5,1c1,.76.66,1.64-.77,1.82ZM217,133.65a21.91,21.91,0,0,1,1.18-9.12h0a6.51,6.51,0,0,1,3.66.06c.09-.8.71-2.33-1.67-3.31a11.53,11.53,0,0,1,5.41-3.57,3.55,3.55,0,0,1,.81,3.17,4.84,4.84,0,0,0-.57.23c-3,1.38-4.09,5.22-4.39,6a12.57,12.57,0,0,0-.43,6.35,4.13,4.13,0,0,0-4.08.19Zm12.83,39.93a46.87,46.87,0,0,0-1.33-7.81.33.33,0,0,0,0,.14c1.55-.78,3.54-.28,4.76.18a43.44,43.44,0,0,1,1.84,8.43,6.44,6.44,0,0,0-5.35-.94Z"/><path class="cls-3" d="M191.57,107.58a2.17,2.17,0,0,0,.41-1.93,5,5,0,0,1,4.21,1.76,7.14,7.14,0,0,0,3.48-1.37,4.31,4.31,0,0,0,2.09,2.8,5.77,5.77,0,0,1,2.45-3.07,3.35,3.35,0,0,0,2.22,2.31c0-4.86,8.87-4.61,7.52-15.77-1.23,9.53-7.22,10.08-8.18,13a6.93,6.93,0,0,1-1.09-2.72,8.18,8.18,0,0,0-3.18,3.68,4.36,4.36,0,0,1-1.08-3.33c-1.4,1.4-2.47,2.42-4.08,2.42-4-2.37-9.33-2.88-11.6-.61-.39-.39-1.53-2.51-.24-3.81a4.26,4.26,0,0,1,.46-2.76,3.4,3.4,0,0,0,2.28,3.24c1.36.44,3-.68,5.33-.25,1.6.29,4.15,1.08,5.49.09,3.65-2.73,4-9.14-.71-9.47,1.86,1.16,2.61,4,1.16,7,1.36-4.32-3-6.52-4.79-6.82-4.46.85-9.86,2.93-10.17-4.55,1.32-.18,2.89-1.41,2.89-2.56a8.54,8.54,0,0,1-3.73,1c-1.68-1.13-1-1.78.42-2.66-3.82.82-3.46,1.89-1.51,3.83.79,6.27,2.22,7.71,6,7.71,2.62,0,5-1.84,7.53-.52,1.27,1.26,2.12,3.63,1.17,5.39a.75.75,0,0,0-.07.12c-.92-1.35-4-4.88-11.28-3.51,3.8,0,5.51.32,6.26,1.67-2.31-1-10.4.7-11.3-3.18,1.17.61,1.51,1.5,3.84,1.5-1.85,0-3.85-2.18-4.2-4-.06-.23-.19-.21-.27,0-2,4.61,1.85,6.37,4.67,6.6a3.92,3.92,0,0,0-.53,2c-2.35,1.59.91,6.65,1.59,6.65,0-2.57,2.36-3.45,3.34-2.81a1.58,1.58,0,0,1,.56,2.15,2.24,2.24,0,0,1-.27.34c-1.2,1.2-7.07.93-9.9,1.55.37.37.85.74.85,1.24-2.24.75-4.49,1.41-6.28,4.67a23.22,23.22,0,0,1,8.21-4.06,1.15,1.15,0,0,0-.3-1C184.59,109.18,189,110.17,191.57,107.58Zm-5.52-8.66a16.92,16.92,0,0,1,4.43.43,8.73,8.73,0,0,0-1.71.76A2,2,0,0,1,186.08,99l0-.07Z"/><path class="cls-1" d="M38.8,236c.16-.85.12-2,1.64-2a1.38,1.38,0,0,1,.51-1.9,1.35,1.35,0,0,1,.62-.18c0-.94,1.31-1.53,2.18-1.6a2.29,2.29,0,0,1,1.29.14c.37.15,2.1-.26,1.65,1.94a3.22,3.22,0,0,1,.65,1.34c.2,1.18-.15,2.22-1.14,2.5a3.81,3.81,0,0,1-1.09,3.45,6.65,6.65,0,0,1-2.58.66,1.93,1.93,0,0,1-2,1.42,3.25,3.25,0,0,1-2.39-.81S35.11,236,38.8,236Z"/><path class="cls-3" d="M66.93,147.74c-1.85-3-5.38-5.84-10.79-7,5,2.63,7.62,6.92,8.27,9.6a17.52,17.52,0,0,1,6.32,1.85A12.3,12.3,0,0,1,67.11,157c-3.65-1.35-7.22-4.9-15-4.9,6.48,1,10.09,6.84,12.48,6.84h0c-7.05,5-17,9.2-14.54,17.42,1.05,3.57,3,4.8,4.77,8.22.6-3.16,5.45-4.43,9.09-11.94-.48,3-.27,8.41-1.51,11.57,4.31-2.79,4-9.89,5.32-11.92h0a26,26,0,0,1,3.56.85c-3.39,5.38-1.42,10.19-5.18,14,4.2,0,7-8.36,10.15-11.67a9,9,0,0,1,1.32,1.07c-5-7.15-18.51-8-23.39-7.49,5.91-5.18,15.64-8.51,19.53-15.69A30.7,30.7,0,0,1,85,161.89C84.22,158.8,76.54,149.05,66.93,147.74Z"/><path class="cls-3" d="M102.07,162.1c-1.09-1-2.39-8.7-5.82-10.45-2.16-1.09-9.1-9.16-13.93-15,2.66-2.3,8.29-8,9.13-8.85,1.94-1.92-1.44-19-3.42-23,.49,6.41,2.19,15.56,1.59,18.51-.75,3.63-2.6,4.31-4.71,4.31-1-3.7-3.47-5.38-5.4-12.62a2.68,2.68,0,0,1-.11-.49c1.93,2,3.79,5.72,8.38,6.67-4.11-2.69-5.54-8.53-9.12-11.4-.08-.66-.15-1.32-.24-2,2.28,2.73,4.87,1.27,8.39,4.79-1-4.14-6.32-4.19-9-9.39a18.07,18.07,0,0,0-1.31-4.62A5.31,5.31,0,0,1,75,94.44,7.28,7.28,0,0,0,78.54,97l.61,6.82s3.41,1.32,3.61-1.22c-.92.92-2.54.21-2.54.21l-.63-5.92a5.73,5.73,0,0,1,1.79-2.52l1.12,7-.1-7.94a1.86,1.86,0,0,0,.37-.62A2.48,2.48,0,0,1,80.48,92a2.11,2.11,0,0,0-1.55.59c0-1.14.55-1,.79-1.65-.34-.7-.24-1.79,1.31-3.35a3.52,3.52,0,0,1-2.86.1,4.52,4.52,0,0,0-2,1.38,2.57,2.57,0,0,1,.65-2.13c-.85-2,1.33-3.87,1.33-3.87s-2.24,1.23-4.07.46a4.07,4.07,0,0,0-1.46,1.27,2.89,2.89,0,0,1,.53-2.2c-1-1.47.27-4.32,2.37-5.09a5,5,0,0,1,3.52.41c1.26,1.11.85,3,1,3.38,4.51-1,5.17,2.23,4.64,4.29,3.57,3.57,1.54,5.9,1.54,8.67a41.72,41.72,0,0,0,1.33,7.84l.34-7.64s2.7-6.37-1.47-9.1c.41-.9.59-5.15-4.94-5.76a3,3,0,0,0-1.15-2.32C78,38.15,50.33,21.81,37,43.88c4-3.13,8-4.68,14.72-3.67-4.5.34-9.45,3.38-11.13,8A13.48,13.48,0,0,1,52.1,45.9,13.79,13.79,0,0,0,43,53.28c3.21-3.29,9-3,12-2.53a12.18,12.18,0,0,0-10.27,8.94c3.57-3.16,9.16-4.12,12.39-4.12a16.79,16.79,0,0,1,2,.13A13.37,13.37,0,0,0,49,63.94c3.24-3.35,8-3.81,10.47-3.81a7.48,7.48,0,0,1,2.84.51c-2,.14-9.45.46-8.95,9.46,3.28-5.32,10.93-3.84,12.61-3-2.36,0-8.75,2.38-4.79,12.72,1.34-8.6,10.86-10.34,13.51-2.56-2.3.59-4.48,3-3.27,5.73,0,2.09.1,3,.1,3a2.44,2.44,0,0,0-1.87,2.48A5.18,5.18,0,0,0,71.2,92.4c1.3,1.3,2.61,4.4,4.18,8.46,1.08,2.82,1.4,14.32,1.4,14.32a3.3,3.3,0,0,1-2.06,0c2.51,2.88,5.08,5.79,5.93,8.5-2,.08-.88.08-2,.08,1.2,2.68,2.25,7.38,1.18,9.85-1.55-1.88-2.55-3.13-2.55-3.13s-2.74-14.14-16-15.21c9,2.63,13,11.32,14.31,16.73.28.3,1,1.15,2.06,2.36-.94,1-2.09,4.26-6.43,7.19,3.47.41,7.1-3.53,8.32-5,.74.87,1.55,1.8,2.42,2.79-.29,1-1.76,5.29-5,7,4.82-.57,6.47-3.23,7-4.75,1.15,1.3,2.35,2.62,3.55,3.92-.75,1.51-3,5.46-6,6.52a21.32,21.32,0,0,0,8.33-4c2,2,3.86,3.88,5.47,5.24,4.7,4,4,6.58,5.48,9.61.86,1.46,4.75,3.52.81,6.14a.58.58,0,0,0-.1-.23c-1.33-2.08-4.27-3.62-4.81-7.57-.58,2.8.22,5,1.24,6,3.33,2.9.7,6.12-1.5,6.62,1.08-1.16,1.24-3.22-1.19-5.37a22.56,22.56,0,0,1-2.11-5.62,10.74,10.74,0,0,0,.53,6.19c3.16,3.16-.78,5.56-5,2.92a4.87,4.87,0,0,0,2.55,2.2,4.32,4.32,0,0,1-.87,2.37,3.21,3.21,0,0,0,2.41-1.94c.34.07.71.12,1.11.18a3,3,0,0,0,1.83-.37c.19.31.37.59.72.66,2.35.49,5.39-2,5.48-4.62C106.5,168.49,105.69,164.08,102.07,162.1ZM61.93,74.62c.31-7.22,6-8.28,9.62-6-2.09-3.58-7.84-4.54-10.41-4.54a9.74,9.74,0,0,0-4.92,1.31c1.38-3.58,6.62-5.17,11.29-2.77-1.35-2.36-5.27-5.29-12-3.58,2.3-3.92,9.33-2.86,9.33-2.86-4.5-4.5-13.15-1.73-15.94-.58a11.83,11.83,0,0,1,12.94-3.74C58,48,50.52,49.08,49.06,49.47c3.15-4.93,10.4-2,10.4-2-4.35-5.28-12.61-3.39-13.76-3.09,1.73-2.94,8.23-4.26,13.33-1.52-4.41-5.36-13.93-5-15.73-4.14,7.14-7.13,18.09-2.76,25.55,6.85C74.46,52.81,78.06,63.76,79,76.91c-.37-.06-.77-.13-1.15-.17,0,0-2.28-23.43-12.48-32.61C74.56,55.92,76,76.44,75.92,76.44a4.94,4.94,0,0,0-.35-1C73.69,71.34,66.28,67.76,61.93,74.62Z"/><path class="cls-3" d="M26.8,88.25h0C23.59,105,30,115.35,35.53,120.91c3.36,3.34,5.46,4.73,6,7.72a34.82,34.82,0,0,0,1,11.9,58,58,0,0,0-3.5,9.1h0a17.45,17.45,0,0,1-1.22,3.23c4.56,1.52,10.81,7.15,20.85,4.87-9.54-1.5-14.7-6-19.34-8,.76-1.24,1.48-2.36,2.15-3.37,5.06,0,12.25,5.77,19.07,3-6.74.46-10.44-5.35-16.8-6.29.92-1.27,1.52-2.06,1.74-2.32,4.89.53,10.49-4,16.57-.93-6.61-6.61-10.4-1.53-17-1.33-.12-.53-.24-1.13-.35-1.82,6.37-2.91,9.17-10.79,15.88-12.57-7.33-.72-11.09,5.7-16.28,8.68a27.78,27.78,0,0,1,.16-4.65c5.52-2.31,9-11.68,13.68-12.36-5-1.85-8.58,5.12-12.81,8.19a18.75,18.75,0,0,1,3.78-6.87,12.48,12.48,0,0,0-6.56,7.15,36.13,36.13,0,0,0-4.3-4.27l.32.26c9.61-2,8-8.11,15.61-10.44-7.21,0-11.38,6-19.3,6.53a33.91,33.91,0,0,1-4.15-6.85c4.21-.25,5.72,4,13.82,0-8.39,1.28-9.28-2.9-15.11-3.23a34.66,34.66,0,0,1-1.2-17c.23.15.46.29.71.42,1.62.3,3.83.45,4.65-1.48-7.62-1.21-9-6.3-9-6.3s-.3-1.51,3.95-2a11.1,11.1,0,0,0-6.59,1A14.65,14.65,0,0,0,26.8,88.25Z"/><path class="cls-3" d="M54.38,90.6s4.82,2.54,7.4-.06A38.12,38.12,0,0,1,54.38,90.6Z"/><path class="cls-3" d="M56.47,88.63c1.14.52,3.7,2.1,6.1-.3A39,39,0,0,1,56.47,88.63Z"/><path class="cls-3" d="M30.85,80.18A35.62,35.62,0,0,1,35.3,81a5,5,0,0,0-1.13-.73,27,27,0,0,1,16.35-2.7,20.72,20.72,0,0,0-14.87-.09,50,50,0,0,0-4.34-2.72c-.59.59.11,3.32.43,4.47a14.41,14.41,0,0,0-1.41.87Z"/><path class="cls-3" d="M50.8,91.46a3.53,3.53,0,0,1,1.64-.31c0-2.29,1.5-4.1,5.74-4.4C52.47,86.22,50.8,89,50.8,91.46Z"/><path class="cls-3" d="M85.51,169.75a2.67,2.67,0,0,1-1.21,1.68,2.28,2.28,0,0,0,2.44-.82,3.34,3.34,0,0,0,1.84.32c3.81-1.43.59-4.48,1.8-7.32-1.85,1.33-1.16,4.62-2.41,5.18s-3.26-2-2.68-4.66C83.81,166.55,84.33,168.55,85.51,169.75Z"/><path class="cls-3" d="M35.28,94.62a2.55,2.55,0,0,1,1.2-2.4,7.43,7.43,0,0,0,3.77,6.3c2.92-.91,5.28.69,6.29,3.33,0-3.3-2.43-5.15-5.78-5.15-2-.72-3.55-3.34-3.5-6.94a1.19,1.19,0,0,0-1,.5c-.36-3.15,1.92-5.19,2.93-7.45C35.53,85.54,33.17,90.23,35.28,94.62Z"/><path class="cls-3" d="M33.28,84.52c2.43,0,1.68-2,1.68-2s-2.06-1.07-7.45-.61A7.5,7.5,0,0,0,33.28,84.52Z"/><path class="cls-3" d="M47.5,232.17a2.1,2.1,0,0,0-2.12-2.06h-.16a2.46,2.46,0,0,0-1.73.15,3.47,3.47,0,0,1,1.83.23c.88.4,1.27.92,1.27,1.39a2.85,2.85,0,0,0-2.2-.14c3.36,1,2.59,3.1,1.77,3.23a3.49,3.49,0,0,0-3.94-1.08c3-.34,5.1,5.21,1.27,5.21-.66-3-2.63-4.37-4.69-3.14,1.29,0,2.72.23,3.19,3.33.26,1.69-3.06,2-4.18.92a29,29,0,0,0-4.13-1.28c-1.78-.33-6.53-1.06-6.28-3.57a18.8,18.8,0,0,0-.17-3c-.08-.53-.23-1.28-4.33-.9A24.78,24.78,0,0,1,26,228.36a1,1,0,0,0-.45-1.69,7.82,7.82,0,0,0-3.44.69,5.26,5.26,0,0,1,2.73-3,1.09,1.09,0,0,0,.49-1.45,1.14,1.14,0,0,0-.65-.55,9.57,9.57,0,0,0-4.29.31c1.57-2.13,4.31-1.63,3.92-3.09a20.09,20.09,0,0,1-.68-4.82c-1,1-1.25,2.87-1.1,5.13a6.71,6.71,0,0,0-4.33,4.45,8.81,8.81,0,0,1,5-.5,9.77,9.77,0,0,0-3.36,5.61,8.25,8.25,0,0,1,4.42-1.11A11.69,11.69,0,0,0,20,233.1c2.49-.51,4-.47,5,.07a31.57,31.57,0,0,1,.33,4c0,1,4.16,2.79,8,3.43,2.56.43,4,2.13,6.67,2.13a2.7,2.7,0,0,1-.1,2.53,6.16,6.16,0,0,0,2-3.07,1.31,1.31,0,0,0,1-1.18,6.31,6.31,0,0,0,2.08.05,6.13,6.13,0,0,1,.54,2.89,2.91,2.91,0,0,0,.62-3.67,3.23,3.23,0,0,0,.69-3.25s1.36,0,2.41,2a5.25,5.25,0,0,0-.84-3.13A7.44,7.44,0,0,0,47.5,232.17Z"/><path class="cls-3" d="M100.34,207.12a4.1,4.1,0,0,0,.8-3.57h0a5.59,5.59,0,0,0-2.11-2.9c0-5.13-5.86-5.47-8.58-2.74A11.11,11.11,0,0,1,83,196.64a2.56,2.56,0,0,1-1.31-1.93c0-3.48-.55-14.81-3.23-17.12a11.09,11.09,0,0,1,.75,2.89c.75,4.78.41,11.84.37,15.29a2.59,2.59,0,0,0,2,2.57c2.28.59,5.75,2.07,9.49,1,1.12-.87,4-3.68,6.9.48-.9-.9-4.39-1.45-5.91.07-.7.71-3.25,1.15-6.31,1.15,3.31.61,5.08.92,6.77.1,1.5-2.13,8.32,0,7.33,3.84a9.93,9.93,0,0,0-3.45-3.12c-1.38-.85-3.66-.67-4.24.87a15.6,15.6,0,0,1-5.23.32,13.13,13.13,0,0,0,5,.77c1.07-1,3-1.43,5.12.09.56.56,2.61,2.07.79,3.88-.82,1.11-2.36,1.6-5.34,1a30.78,30.78,0,0,0-4.17-.38c-.33,1.43-2.35,3.1-2.35,3.1s-1.73-4.41-2.71-4.41-1.91,3.79-4.19,4.79c0-1.9-.7-4.41-1.53-4.41s-1.14,1.6-3.48,3c0-2.28-.36-3.58-.73-4s-3.12-.86-3.32-1.08c-1.18-1.16,2.69-9.32-2.39-14.39-2.79-2.8-8.69-2.32-10.36-2.12a18.24,18.24,0,0,0-2-3.27c6.92,14.92-21.93,30.08-22.21,34.11a7.44,7.44,0,0,1,2.36-1.49,76.63,76.63,0,0,0,1.14,11.7,19.67,19.67,0,0,1-2.36-6c-.38,1.9-.07,5-.07,7A13.94,13.94,0,0,1,32,224.83a17.57,17.57,0,0,0,.47,8.49c.65,1.86,4.87,2.46,4.87,2.46s-2.82-2-1.79-3a3.35,3.35,0,0,0,3.25,1,2.21,2.21,0,0,1-1.62-1.57c1.83,1.1,3.86-.37,3.86-.37s-2.64.16-2.64-1.19c1.19,1.19,4.86-.38,4.86-.38s-4.4.36-5.07-2c-.5-1.78-1.27-8.62-.53-10.83.48-1.44,14.28-9.68,19.15-18.85a10.37,10.37,0,0,0,1.27-7.5c1.76-.38,5.65-.78,8.55,2.12,3.12,3.13-.11,13.35,1.4,13.79a29.3,29.3,0,0,1,3.57,1.5s1.39,1.76.43,5.3a23.26,23.26,0,0,0,5.08-3.75,12.82,12.82,0,0,1,.4,5.12c2.59-.9,5.9-5.21,5.9-5.21a7.82,7.82,0,0,1,1.41,4.46c1.86-.82,4-2.51,4.57-4.11,3.34-.26,5.81,1.67,8.54.05.37-.21,1.89,1,2.74,2.79a5.5,5.5,0,0,0-1-4.87A1.61,1.61,0,0,0,100.34,207.12Z"/><path class="cls-3" d="M26.75,192.07c7,8.58,3.38,16.66-.84,20.88a15.18,15.18,0,0,0,5.78-5.24c2.29-.08,10.1-.9,14.41-8-5.37,4.85-10.66,4.58-12.93,4.16a12.27,12.27,0,0,0,.15-2.71c3.52-3.67,16.88-5.81,16.38-12.91-1.41,5-14.31,5.39-17.23,9a22.9,22.9,0,0,0-1.39-3.07c3.19-4.73,15.37-4.48,19.36-11.14-5,3.11-15.17.77-22.17,7-.71-.91-1.51-1.84-2.4-2.8a11.28,11.28,0,0,0-.08,3.07,18.64,18.64,0,0,1-4.47.28,20.54,20.54,0,0,1-1.57-7,11,11,0,0,0-2.86,5.64c-2.41-1.5-3.81-4.18-4.58-7.73-.11-.52-.19-1-.27-1.58a6.79,6.79,0,0,1,5.75-1.76c1.08,3.68,3.91,7.46,7.79,4.13,7,.9,13.16-4.43,22.88-4.43-6.24-3.05-16.44.91-21.08.18l-.35.35c.42-1.53,1.07-3.64,2.1-6.44l.4.07c3.71.41,10.57-3.56,17.84.84-6.24-6.24-12.46-4.9-16.71-4.8q.82-2,1.92-4.44c3.15-.24,13.27-.74,17.78,2.6-3.64-5.3-14.17-6-16.17-6.08.89-1.89,1.89-3.92,3-6.11-7.82,9-11.51,20.7-12.42,23.74s-2.52,3.42-4,1.9c-2-2-3.22-13.5,7.13-35.26a80.17,80.17,0,0,0-7.92,17,5.73,5.73,0,0,0-4.28-.32c1.6-4.13,3.5-8.29,5.25-12.28,1-.83,3.11-2.29,5.09-2A3.81,3.81,0,0,0,22.55,145a77.27,77.27,0,0,0,2.69-7.37v.18a4.92,4.92,0,0,1,4.4.36c0-.06.07-.1.1-.16a30.67,30.67,0,0,1-1.23,5c3.4-5.37,4.84-13.46,1.52-19.48-6.87-12.4-18.41-6.24-17.11-3.61,1.58,3.21,7.65-.23,10.51,4.83,4.46,7.92-3.11,21.5-8.53,33.1C8.8,170.87,5.63,196.54,26.75,192.07ZM15.28,118.34a6.41,6.41,0,0,1,3.49-1,5,5,0,0,0-.9,2.93,13.57,13.57,0,0,1-1.9-.09C14.5,120,14.18,119.11,15.28,118.34Zm6.1,2.76c-.19-.09-.38-.16-.56-.23a3.5,3.5,0,0,1,.79-3.16A11.32,11.32,0,0,1,27,121.27c-2.37,1-1.75,2.5-1.66,3.32a6.51,6.51,0,0,1,3.66-.07h0a22.43,22.43,0,0,1,1.21,9.12,4.15,4.15,0,0,0-4-.13,12.83,12.83,0,0,0-.42-6.36c-.38-.81-1.46-4.65-4.48-6Zm-2.7,44.77a.29.29,0,0,1,0-.13,45.92,45.92,0,0,0-1.33,7.8,6.42,6.42,0,0,0-5.33.93,41,41,0,0,1,1.85-8.41c1.23-.45,3.21-.95,4.77-.17Z"/><path class="cls-3" d="M51.09,79.76c-6.93-2.7-8.74.92-7.6,3.37-2.34,1.18-5.36,7.12,5.88,6.57-5.79-1.27-6.74-4-4.55-5.36h.06c3.7,3.46,7.64,2.23,9.26-.71a3.66,3.66,0,0,0,2.78-1.85c1,.11,3,.39,5.8.92-1.23-1.22-4.2-2-5.83-2.32-.44-.9-1.78-1.81-4.47-2.38,5.47,1.83,2.38,6.14.68,4.44-2.41-2.41-4.81-1.35-7.29,0C45.69,81.34,46,79.17,51.09,79.76Zm-.83,2.74a1.23,1.23,0,0,0-.68,1.17,1,1,0,0,0,.72,1.21,1,1,0,0,0,1.22-.72,1,1,0,0,0,0-.49,1.53,1.53,0,0,0-.12-.6,3.16,3.16,0,0,0,1.58.49c-.46,1.9-2.51,2.51-6.53.44,1.83-1.66,2.92-1.81,3.83-1.5Z"/><path class="cls-3" d="M64.41,85.92a8.51,8.51,0,0,1-3.73-1c0,1.14,1.58,2.37,2.9,2.56-.31,7.46-5.71,5.38-10.17,4.53-1.84.31-6.15,2.52-4.79,6.84-1.46-3.08-.71-5.87,1.16-7-4.69.33-4.38,6.75-.71,9.47,1.34,1,3.89.22,5.48-.08,2.33-.44,4,.69,5.33.26a3.44,3.44,0,0,0,2.28-3.25,4.33,4.33,0,0,1,.45,2.76c1.3,1.29.17,3.42-.22,3.81-2.27-2.28-7.63-1.75-11.6.61-1.61,0-2.68-1-4.09-2.43a4.48,4.48,0,0,1-1.08,3.34,8.11,8.11,0,0,0-3.17-3.68,7,7,0,0,1-1.1,2.72c-1-3-6.94-3.5-8.18-13-1.35,11.16,7.52,10.9,7.52,15.78a3.41,3.41,0,0,0,2.23-2.32,5.93,5.93,0,0,1,2.45,3.08,4.35,4.35,0,0,0,2.08-2.81,7.13,7.13,0,0,0,3.49,1.37,4.92,4.92,0,0,1,4.21-1.76,2.08,2.08,0,0,0,.41,1.93c2.59,2.59,7,1.61,10.37,1.95a1.12,1.12,0,0,0-.3,1,23.58,23.58,0,0,1,8.21,4.07c-1.79-3.28-4-3.93-6.3-4.68,0-.5.5-.87.86-1.24-2.83-.62-8.69-.34-9.89-1.55a1.55,1.55,0,0,1-.07-2.2,1.6,1.6,0,0,1,.35-.28c1-.65,3.34.24,3.34,2.79.68,0,4-5.05,1.6-6.63a4,4,0,0,0-.54-2c2.83-.22,6.65-2,4.67-6.6-.06-.16-.21-.17-.27,0-.35,1.86-2.35,4-4.2,4,2.33,0,2.68-.9,3.84-1.5-.89,3.89-9,2.16-11.29,3.19.74-1.36,2.45-1.67,6.26-1.67-7.27-1.38-10.38,2.15-11.27,3.51l-.08-.13c-1-1.75-.1-4.14,1.16-5.4,2.54-1.31,4.9.52,7.52.52,3.76,0,5.18-1.42,6-7.69,2-2,2.31-3-1.5-3.83C65.45,84.15,66.1,84.79,64.41,85.92ZM58.34,100.1a8.38,8.38,0,0,0-1.7-.77,17.51,17.51,0,0,1,4.45-.43,2.11,2.11,0,0,1-2.73,1.21Z"/><path class="cls-3" d="M133.22,77.62c-.94,7.4-4.85,9.32-6.83,14.35-1.9,4.81-1.28,9.91-6.78,15.41-3.69,3.68-2.81,10.13-5,16.2-1.87,5.28-10.87,16.89-18.26,11-.84,1.78.57,3.58,3.73,3.95a57.71,57.71,0,0,1,9.51,1.57,3.79,3.79,0,0,0,.14,1.64,2.68,2.68,0,0,0-1,1.23,2.76,2.76,0,0,0,.44,2.67l-.63,1.25c-1.54.24-2.29,2.31-4,2.63-2.8.54-4.81-.78-6.09-1-3.39-.72-1.18,3.18.5,4.06-.55,0-.68.46,0,1,6.54,5.26,15.43-.82,13.29-5.45.09-.39.18-.85.29-1.35a2.79,2.79,0,0,0,2-1.71,2.71,2.71,0,0,0-.06-1.94h.1a2.36,2.36,0,0,0,.93-.79c2.25,1.15,3.39,2.1,4.93,2.1-3.26-5,1.16-10,3-17.86,2-8.48,1.53-11.92,3.35-14.72,5.32-8.21,4.56-12.17,4.41-15.82C131,88.54,136.28,86.91,133.22,77.62Z"/><path class="cls-6" d="M111.19,131c.87-1.56,4.29-9.31,8.21-17.44,3.31-6.89,5.3-5.87,6.88-15.37,1.49-8.94,5.14-11.12,6.57-14.82,0,3.3-3.1,7.25-3.1,13.06,0,3.19-1.1,4.25-1.47,5.46-1.61,5.15-4.16,6.08-6,16A87.91,87.91,0,0,0,119,133s-1.74,4.53-1.74,6.31c-2.68-3.09-9.88-3.18-12.46-3.18C106.87,135.74,109.85,133.41,111.19,131Z"/><path class="cls-4" d="M112,142.71a4,4,0,0,0,.4,3.5c-1-.18-1.57-1.7-1.57-2.43-.84,0-1,1.19-1,1.52a2,2,0,0,1,.14-2.82,1.57,1.57,0,0,1,.45-.31A2.74,2.74,0,0,0,112,142.71Z"/><path class="cls-4" d="M119,143.44c-4.52-8.48-19.17-5.71-21.38-7C98.83,139.22,111.65,137,119,143.44Z"/><path class="cls-4" d="M109.78,149.47c.65-1.42-.81-2.23-2.29-.33-3.3,3.05-6.71.9-8.84.29-1-.27-1.2,1.34,1.79,3.16-1,0-.56.56.32,1.18s5.77,2.29,8.71-1.08a8.21,8.21,0,0,1-7.59.22C106.7,153.13,108.82,151.54,109.78,149.47Z"/><path class="cls-3" d="M113.48,132a10,10,0,0,1-4.5,3.77,19.65,19.65,0,0,0,2.86-3.62Z"/><path class="cls-3" d="M150.73,134.57c-7.38,5.9-16.39-5.71-18.26-11-2.14-6.07-1.27-12.52-5-16.2-5.5-5.5-4.88-10.6-6.77-15.41-2-5-5.9-7-6.83-14.35-3.06,9.29,2.2,10.92,1.9,18.49-.15,3.65-.93,7.61,4.4,15.82,1.82,2.8,1.38,6.24,3.35,14.72,1.83,7.87,6.24,12.88,3,17.86,1.54,0,2.7-.95,4.94-2.1a2.16,2.16,0,0,0,.93.79h.09a2.65,2.65,0,0,0,0,1.94,2.78,2.78,0,0,0,2,1.71c.1.5.18,1,.27,1.35-2.12,4.63,6.76,10.71,13.31,5.45.7-.58.56-1,0-1,1.68-.88,3.88-4.78.49-4.06-1.26.18-3.28,1.5-6.08,1-1.71-.32-2.45-2.39-4-2.63-.18-.39-.4-.82-.62-1.25a2.79,2.79,0,0,0,.45-2.67,2.74,2.74,0,0,0-1-1.23,4.13,4.13,0,0,0,.15-1.64,56.27,56.27,0,0,1,9.49-1.57C150.15,138.15,151.57,136.34,150.73,134.57Z"/><path class="cls-6" d="M135.93,131c-.87-1.56-4.29-9.31-8.21-17.44-3.3-6.89-5.29-5.87-6.88-15.37-1.49-8.94-5.15-11.12-6.57-14.82,0,3.3,3.11,7.25,3.11,13.06,0,3.19,1.09,4.25,1.47,5.46,1.61,5.15,4.15,6.08,6,16A87.89,87.89,0,0,1,128.1,133s1.68,4.52,1.68,6.34c2.69-3.09,9.89-3.18,12.48-3.18C140.28,135.74,137.28,133.41,135.93,131Z"/><path class="cls-4" d="M135.1,142.71a4,4,0,0,1-.39,3.5c1-.18,1.56-1.7,1.56-2.43.84,0,1,1.19,1,1.52a2,2,0,0,0-.14-2.82,1.67,1.67,0,0,0-.44-.31A2.79,2.79,0,0,1,135.1,142.71Z"/><path class="cls-4" d="M128.12,143.44c4.54-8.48,19.18-5.71,21.39-7C148.28,139.22,135.48,137,128.12,143.44Z"/><path class="cls-4" d="M137.34,149.47c-.66-1.42.81-2.23,2.29-.33,3.31,3.05,6.71.9,8.84.29.95-.27,1.2,1.34-1.79,3.16,1,0,.56.56-.32,1.18s-5.77,2.29-8.7-1.08a8.21,8.21,0,0,0,7.59.22C140.43,153.13,138.28,151.54,137.34,149.47Z"/><path class="cls-3" d="M133.65,132a9.73,9.73,0,0,0,4.49,3.77,18.54,18.54,0,0,1-2.86-3.62Z"/><path class="cls-1" d="M149,131.91l.11-30V99.82a26.3,26.3,0,0,1-3.52-.4,7.35,7.35,0,0,1-1.14-.3c-.53-.11-.71-.67-.86-1.23-1.76,1-5.25.18-9.13-1.49-4.07-1.74-10.84,3.46-10.84,3.46h0s-5.41-4.65-9.7-3.62c-4.52,1.1-8.14,2.59-10.4,1.65-1.57,2.79-5.12,4.41-5.12,4.41l-.2,29.59,19.53.24,5.89,2.71h0l6.13-2.74Z"/><path class="cls-4" d="M129.7,132.1c-2.2,2.2-4.13,2.92-6.13,2.74a4.41,4.41,0,0,1,.24-6.22l0,0c2.79-.14,2.12,1,4.49.91,8.49-.15,18.66-.14,18.66-.43V101.73c0-.66-1-1.8-1-1.8l3.09-.09L149,131.41A177.76,177.76,0,0,0,129.7,132.1Z"/><path class="cls-6" d="M123.57,99.88v29a101.69,101.69,0,0,1-18.3,0c5.47-1.09,8.26-3.5,11.37-3.35-1.94-12.49,4.55-19.14,1.61-28.69A11.89,11.89,0,0,1,123.57,99.88Z"/><path class="cls-6" d="M134.74,96.85c4.19,7.28-3.11,18.36,0,29.74.25.25,5.41,1,6.1-2-3.18-8,2.93-18,.29-26.31C138.18,97.34,137.41,96.85,134.74,96.85Z"/><path class="cls-6" d="M108.34,97.87c1.17,11.43-4.64,22.36-1.37,30.71-1.18.41-4.83-.06-4.83-.06l1.33-30.61S105.28,99.26,108.34,97.87Z"/><path class="cls-6" d="M127.83,129.23a33.29,33.29,0,0,1-4.22-.63s3.31-3.3,6-3.11c5.07.33,7.15,2.68,11.69,3.27a46,46,0,0,1-7.42.38C132.28,129.14,130.21,129.34,127.83,129.23Z"/><path class="cls-4" d="M134.74,126.59a17.14,17.14,0,0,0,4.88-.65c3.43-1.3,4.63-4.5,5.25-6-.46,3.17-.76,5.6-.46,7.18-1.19,1.32-3.75,1.13-4.49,1C136.12,127.69,134.74,126.59,134.74,126.59Z"/><polygon class="cls-6" points="144.79 117.04 144.63 99.21 146.71 101.46 146.99 129.08 144.62 128.17 144.79 117.04"/><path class="cls-4" d="M117.41,132.1c2.18,2.2,4.11,2.92,6.11,2.74-.8-.75-.65-2.37-.83-3.68-.13-1,1-1.56.56-2.56-2.79-.14-2.12,1-4.5.91-8.47-.15-18.65-.14-18.65-.43V101.73c0-.66,1-1.8,1-1.8L98,99.84l.07,31.57A178.12,178.12,0,0,1,117.41,132.1Z"/><path class="cls-4" d="M112.34,126.59a17,17,0,0,1-4.86-.65c-3.43-1.3-4.21-4.29-4.77-4.84-.34,3.35-.29,4.7.38,6.52s3.32.62,4.08.52C111,127.69,112.34,126.59,112.34,126.59Z"/><path class="cls-3" d="M150,99.16h-4.4a3.88,3.88,0,0,1-.61-1.3,3,3,0,0,1-.66.1v-.88c-6.9,3.34-10-6.24-19.06,1.61,9.35-5.7,13.42,1.82,18.24-.29-.46,3,.53,12.82.69,17.93.21,6-1.08,6.39-3.45,6.39,0,3.13-1.61,3.44-3.56,3.58-2.17.15-4-1.87-8.18-1.14h-.11a8.19,8.19,0,0,0-5.31,2.9h0a8.28,8.28,0,0,0-5.31-2.9h-.1c-4.21-.73-6,1.29-8.16,1.14-2-.14-3.57-.45-3.57-3.58-2.37,0-3.67-.38-3.46-6.39.17-5.11,1.16-14.93.69-17.93,4.83,2.11,9.53-5.07,18.23,0-9.92-7.74-12.15,2-19.05-1.37,0,0,.05.49.05.88a2.84,2.84,0,0,1-.66-.1,4.31,4.31,0,0,1-.61,1.3H96.69l.11,33.44h20.67s2.57,3.22,6.11,3.22h0c3.55,0,6.13-3.22,6.13-3.22h20.65l.11-33.44Zm-5,.64a3.13,3.13,0,0,0,1.2,1.51v27.27s-.85.08-1.2-1.66c-.23-1,0-26,0-27.12Zm-.74,22-.14,5.27c-1.84.82-4.67.57-6.9.08,2.41,0,5.1-.34,7-5.38Zm-5.17,6.84c-4.36.12-8.43.15-11.17.16-.55-.19.87-1.58,2.72-1.58-2.62-.75-5.23,1-5.86,1,6.29-5.06,9,0,14.3.39Zm-16.67-.44c-.63,0-3.25-1.73-5.87-1,1.87,0,3.29,1.39,2.72,1.58-2.73,0-6.81,0-11.17-.16,5.33-.39,8-5.46,14.31-.45Zm-12.45-1c-2.22.49-5.06.74-6.9-.08l-.13-5.27c1.95,5,4.61,5.32,7,5.32Zm-7.77-.2c-.36,1.74-1.22,1.66-1.22,1.66V101.34a3.18,3.18,0,0,0,1.22-1.51c-.07,1,.21,26.06,0,27.09Zm46.71,4.34-20-.1s-2.18,3.13-5.31,3c-3.14.17-5.32-3-5.32-3l-20,.1V100.4h2.41a7,7,0,0,1-.78.76c-.12,8.8,0,28.69,0,28.69h20.41a10.2,10.2,0,0,1,3.29-.61h0a10.36,10.36,0,0,1,3.3.61h20.41s.16-19.89,0-28.69a5.53,5.53,0,0,1-.77-.76h2.4Z"/><path class="cls-5" d="M123.53,130.34a4.05,4.05,0,0,0-2.68.76,2.54,2.54,0,0,0,2.64,1.69v0a2.55,2.55,0,0,0,2.64-1.69A4.12,4.12,0,0,0,123.53,130.34Z"/><path class="cls-3" d="M144.28,179.81c1-3.41-1.62-8.22-7.34-7.12,2.17-5.77-4.13-8.29-6.85-6.74-1.27-2.64-4.53-3.33-6.56-3.33-1.18-.12-5.29.61-6.56,3.33-2.72-1.55-9,1-6.84,6.74-5.73-1.1-8.35,3.71-7.35,7.12-3.14,1.84-2.6,5.76-.81,7.54a5.59,5.59,0,0,0,2.43,7.51,6,6,0,0,0,1.42.49c-1.39,2.14-2.53,6.09,2.63,7.68-.37,3.67,2.9,6.56,7.25,5.42.27.56,4.63,3.88,7.83-.38,3.2,4.26,7.57.94,7.84.38,4.34,1.14,7.61-1.75,7.25-5.42,5.16-1.59,4-5.54,2.63-7.68a5.58,5.58,0,0,0,4.34-6.57,5.52,5.52,0,0,0-.5-1.43C146.9,185.57,147.46,181.65,144.28,179.81Z"/><path class="cls-5" d="M141.78,179.41c1.21-5.38-3.45-5.59-5.28-4.77C130.21,177.47,126.43,184,125,186a23.23,23.23,0,0,1,9.79-12.47c1.42-3.76-1.62-7.11-5.48-5.9a6.89,6.89,0,0,0-9.54-1.92,6.75,6.75,0,0,0-1.92,1.92c-3.85-1.21-6.9,2.14-5.49,5.9a23.17,23.17,0,0,1,9.8,12.47c-1.44-2-5.22-8.53-11.52-11.36-1.82-.82-6.48-.61-5.27,4.77-4.37,2.63-2.54,7-1.21,7.51-3,4.87,2.48,6.94,2.48,6.94s4.43-6.06,15.08-5.3c-7.75.83-11.43,3.68-13.71,6s-2.47,6.72,2,7c-.5,5.68,3.38,5.43,5.87,4.46,1.29,2.51,5.25,2.46,6.26,1.19,1.08-3.83,1.42-13.94,1.42-13.94s.46,10.47,1.42,13.94c1,1.27,5,1.32,6.26-1.19,2.49,1,6.37,1.22,5.87-4.46,4.5-.29,4.31-4.71,2-7s-6-5.13-13.72-6c10.65-.76,15.09,5.3,15.09,5.3s5.42-2.07,2.48-6.94C144.28,186.41,146.14,182,141.78,179.41Z"/><path class="cls-4" d="M141.61,182.59a5.89,5.89,0,0,0-3.12-3.79c0-2.1-1.6-2.26-2.42-1.88a13.26,13.26,0,0,0-4.91,4,11.56,11.56,0,0,1,6.1-.77,19,19,0,0,0-4.43,2.91,10.1,10.1,0,0,1,6.22.25A39,39,0,0,0,133,185.4a16.31,16.31,0,0,1,6.1,1.44,21.39,21.39,0,0,0-6.07.72,14.17,14.17,0,0,1,7.42,3.78,3.93,3.93,0,0,0,.25-3.88A5.86,5.86,0,0,0,141.61,182.59Z"/><path class="cls-4" d="M138,196.18a9.92,9.92,0,0,0-4.53-3.37s1.73,3.18,1.73,5.16a41.19,41.19,0,0,0-3.92-3.32,10.73,10.73,0,0,1,1.6,5,20.74,20.74,0,0,0-3.75-3.68s1.44,3.11.92,4.85a34.87,34.87,0,0,0-3-3.85c.6,2.06.83,3.43.37,5-1.14-3.2-2.66-4.19-2.66-4.19a60.13,60.13,0,0,1,1.07,6.67c.13.65,3.57.79,4.57-1.19,4.56,1.07,5.12-1.56,5.5-4C138.86,199.25,138.56,197,138,196.18Z"/><path class="cls-4" d="M128,169.41a5.78,5.78,0,0,0-4.42-2.07h0a5.72,5.72,0,0,0-4.41,2.06c-4.22-.7-4.62,2.23-4.62,3.2,3,1.57,5.47,5.48,5.47,5.48a36.07,36.07,0,0,0-1.42-5c1.83.61,3.22,4.48,3.22,4.48s-.38-3.46-.38-5.39c1,1,2.16,5.58,2.16,5.58s1.14-4.57,2.16-5.58c0,1.93-.38,5.39-.38,5.39s1.39-3.87,3.21-4.48a34.74,34.74,0,0,0-1.42,5s2.44-3.91,5.48-5.48C132.61,171.64,132.21,168.71,128,169.41Z"/><path class="cls-4" d="M105.52,182.59a5.77,5.77,0,0,1,3.11-3.79c0-2.1,1.59-2.26,2.42-1.88a13.31,13.31,0,0,1,4.9,4,11.58,11.58,0,0,0-6.1-.77,19.72,19.72,0,0,1,4.45,2.91,10.16,10.16,0,0,0-6.24.25,38.4,38.4,0,0,1,6.06,2.09,15.8,15.8,0,0,0-6.09,1.44,21.4,21.4,0,0,1,6.06.72,14.07,14.07,0,0,0-7.41,3.78,3.88,3.88,0,0,1-.27-3.88A5.72,5.72,0,0,1,105.52,182.59Z"/><path class="cls-4" d="M109.07,196.18a10,10,0,0,1,4.53-3.37s-1.73,3.18-1.73,5.16a38.85,38.85,0,0,1,3.92-3.32,10.6,10.6,0,0,0-1.59,5A20.11,20.11,0,0,1,118,196s-1.45,3.11-.91,4.85a31.82,31.82,0,0,1,3-3.85c-.6,2.06-.83,3.43-.37,5,1.14-3.2,2.65-4.19,2.65-4.19a59.87,59.87,0,0,0-1,6.66c-.14.65-3.58.79-4.56-1.19-4.57,1.07-5.14-1.56-5.52-4C108.28,199.25,108.55,197,109.07,196.18Z"/><path class="cls-3" d="M124.45,186.28c-1.58-2-7.55-5.7-14.61-7.06a1.86,1.86,0,0,0,.46-1.19,2,2,0,0,0-2-1.9,2.07,2.07,0,0,0-1.63.74,2.08,2.08,0,0,0-1.77-1A2,2,0,0,0,103,177a2.14,2.14,0,0,0-1.77-.93,2,2,0,0,0-2,1.41,2.07,2.07,0,0,0-1.8-1,2,2,0,0,0-2,1.9A1.86,1.86,0,0,0,96.55,180a1.78,1.78,0,0,0-.32.29h0a1.8,1.8,0,0,0-.45,1.19,2,2,0,0,0,2,1.9,2.14,2.14,0,0,0,1.75-.89,2,2,0,0,0,1.48.6,2.15,2.15,0,0,0,1.66-.79,2.13,2.13,0,0,0,3,.61,2.3,2.3,0,0,0,.38-.32,2.08,2.08,0,0,0,4-.49c7.9,2.66,11.14,7.33,11.95,7.9a2.57,2.57,0,0,0,2.79,0C125.74,189.34,126.08,188.34,124.45,186.28Zm-25.17-6.94a2.06,2.06,0,0,0,.21-.48,1.21,1.21,0,0,0,.28.36C99.55,179.26,99.39,179.34,99.28,179.34Z"/><path class="cls-6" d="M123.56,186.81A28.6,28.6,0,0,0,97.64,180c17.41-.77,23.8,8.82,25,9.26C124.65,190.34,124.63,187.88,123.56,186.81Z"/><path class="cls-6" d="M98.51,178.34a1.07,1.07,0,1,1-1.14-1h.07a1,1,0,0,1,1.06.93A.17.17,0,0,1,98.51,178.34Z"/><path class="cls-6" d="M102.28,177.94a1.06,1.06,0,1,1-1.12-1h.06a1,1,0,0,1,1,.94A.13.13,0,0,1,102.28,177.94Z"/><path class="cls-6" d="M102.06,181.23a1.06,1.06,0,1,1-1.12-1H101a1,1,0,0,1,1,.94A.13.13,0,0,1,102.06,181.23Z"/><path class="cls-6" d="M99,181.56a1.06,1.06,0,1,1-1.12-1h.05a1,1,0,0,1,1.06.93A.17.17,0,0,1,99,181.56Z"/><path class="cls-6" d="M106,177.79a1.06,1.06,0,1,1-1.12-1h.06a1,1,0,0,1,1,.94A.13.13,0,0,1,106,177.79Z"/><path class="cls-6" d="M105.59,181.43a1.06,1.06,0,1,1-1.12-1h.06a1,1,0,0,1,1,.94A.13.13,0,0,1,105.59,181.43Z"/><path class="cls-6" d="M109.28,178a1.06,1.06,0,1,1-1.12-1h.06a1,1,0,0,1,1,.94A.13.13,0,0,1,109.28,178Z"/><path class="cls-6" d="M109,182.06a1.06,1.06,0,1,1-1.12-1h.06a1,1,0,0,1,1,.94A.13.13,0,0,1,109,182.06Z"/><path class="cls-3" d="M140.8,68.82c-.72-1.38-4.24-2.51-7.43-2.17a24.51,24.51,0,0,0,14.75-22.44,32.37,32.37,0,0,0-1.66-8.82C145,49.7,135.27,58.46,123.58,58.46h0c-11.68,0-21.44-8.76-22.89-23.07A32.35,32.35,0,0,0,99,44.21a24.47,24.47,0,0,0,14.78,22.45c-3.22-.38-6.82.76-7.55,2.16-4.47-1.52-8.47,2.29-7,5.92,1,2.4,5.47,2.48,6.86.63,2.49,1.1,6.91.43,8.6-1.29,3.35,1.94,8.76-.49,8.78-.49s5.42,2.43,8.77.49c1.7,1.72,6.11,2.39,8.59,1.29,1.4,1.85,5.87,1.77,6.86-.63C149.28,71.11,145.28,67.34,140.8,68.82Zm-35.44,5.23a2.72,2.72,0,0,1-1.6.88c-.31.06-.75-.41-.75-1.27-.64.64-.14,1.47-1.12,1.26a1.52,1.52,0,0,1-.84-.46,3.21,3.21,0,0,1,.72-3.77,4.13,4.13,0,0,1,3.9-.56,4.65,4.65,0,0,0-.31,3.92Zm-4.53-29.84a19.79,19.79,0,0,1,.13-2.43,23,23,0,0,0,22.59,18.56h0a23,23,0,0,0,22.57-18.51,22,22,0,0,1,.14,2.43A22.71,22.71,0,0,1,128.7,66.32a7.21,7.21,0,0,0-5,.59h-.42a7.23,7.23,0,0,0-4.94-.6,22.71,22.71,0,0,1-17.51-22.1Zm13,28.71a6.79,6.79,0,0,1-2.71,1c-.84.16-1.3-1.16-1.34-1.61a2,2,0,0,0-.36,2,4.23,4.23,0,0,1-2.87-.52c-.41-.41-.5-2.2.17-3.78.32-1.49,6-2.53,8.33-1.37a5.26,5.26,0,0,0-1.25,4.28Zm8.91-1c0,.54-1.12.93-3,1.29-.49,0-1-.83-1.1-1.64a2.65,2.65,0,0,0-.76,1.78,2.78,2.78,0,0,1-2.47-.52c-1.13-1.11.1-3.87,1.25-4.25a10.23,10.23,0,0,1,6.19-.24s-.11,3-.14,3.57Zm8.92.91a2.8,2.8,0,0,1-2.46.52,2.76,2.76,0,0,0-.77-1.78c-.16.81-.62,1.64-1.11,1.64-1.86-.36-2.94-.75-3-1.29s-.16-3.58-.16-3.58a10.29,10.29,0,0,1,6.21.24c1.15.37,2.38,3.13,1.26,4.24Zm8.89.94a4.26,4.26,0,0,1-2.88.52,2,2,0,0,0-.37-2c0,.45-.49,1.77-1.33,1.61a6.59,6.59,0,0,1-2.71-1A5.24,5.24,0,0,0,132,68.59c2.35-1.16,8-.12,8.34,1.37.63,1.6.55,3.38.14,3.8Zm5.45.7a1.5,1.5,0,0,1-.83.46c-1,.21-.47-.62-1.1-1.26,0,.86-.45,1.33-.76,1.27a2.69,2.69,0,0,1-1.6-.88,4.72,4.72,0,0,0-.31-3.92,4.18,4.18,0,0,1,3.91.56,3.25,3.25,0,0,1,.66,3.76Z"/><path class="cls-3" d="M111.28,37.27h0l-6.52,4.1,7.61,1.14-3.87,6.68,7.3-2.3-.5,7.59,5.52-5.14,2.77,7,2.77-7,5.53,5.14-.49-7.59,7.28,2.3-3.87-6.68,7.61-1.14-6.51-4.1h0l6.51-4.11L134.81,32l3.87-6.67-7.28,2.29.49-7.59-5.53,5.13-2.77-7-2.77,7-5.54-5.13.5,7.59-7.3-2.29L112.35,32l-7.61,1.14Zm.5-9.3,5.67,1.79-.38-6,4.34,4,2.18-5.58,2.17,5.58,4.36-4-.39,6L135.4,28l-3,5.22,5.78.86-5.09,3.22,5.09,3.2-5.78.87,3,5.22-5.67-1.78.39,6-4.36-4-2.2,5.56-2.18-5.58-4.34,4,.38-6-5.67,1.78,3-5.22L109,40.45l5.09-3.2h0L109,34l5.77-.86Z"/></svg>