<?xml version="1.0" encoding="UTF-8" standalone="no"?>
<svg
   xmlns:dc="http://purl.org/dc/elements/1.1/"
   xmlns:cc="http://creativecommons.org/ns#"
   xmlns:rdf="http://www.w3.org/1999/02/22-rdf-syntax-ns#"
   xmlns:svg="http://www.w3.org/2000/svg"
   xmlns="http://www.w3.org/2000/svg"
   xmlns:sodipodi="http://sodipodi.sourceforge.net/DTD/sodipodi-0.dtd"
   xmlns:inkscape="http://www.inkscape.org/namespaces/inkscape"
   inkscape:version="1.0 (4035a4fb49, 2020-05-01)"
   sodipodi:docname="chat-icon.svg"
   version="1.1"
   viewBox="0 0 1500 1500"
   data-name="Layer 1"
   id="Layer_1">
  <metadata
     id="metadata562">
    <rdf:RDF>
      <cc:Work
         rdf:about="">
        <dc:format>image/svg+xml</dc:format>
        <dc:type
           rdf:resource="http://purl.org/dc/dcmitype/StillImage" />
      </cc:Work>
    </rdf:RDF>
  </metadata>
  <sodipodi:namedview
     inkscape:current-layer="Layer_1"
     inkscape:window-maximized="1"
     inkscape:window-y="-9"
     inkscape:window-x="-9"
     inkscape:cy="527.69299"
     inkscape:cx="793.58025"
     inkscape:zoom="0.28266667"
     inkscape:snap-bbox-midpoints="true"
     inkscape:snap-bbox-edge-midpoints="true"
     inkscape:bbox-nodes="true"
     inkscape:bbox-paths="true"
     inkscape:snap-bbox="true"
     inkscape:snap-page="true"
     showgrid="false"
     id="namedview560"
     inkscape:window-height="1001"
     inkscape:window-width="1920"
     inkscape:pageshadow="2"
     inkscape:pageopacity="0"
     guidetolerance="10"
     gridtolerance="10"
     objecttolerance="10"
     borderopacity="1"
     bordercolor="#666666"
     pagecolor="#ffffff" />
  <defs
     id="defs548">
    <style
       id="style544">.cls-1,.cls-4{fill:none;}.cls-2{clip-path:url(#clip-path);}.cls-3{fill:#f5d1c7;}.cls-4{stroke:#846859;stroke-linecap:round;stroke-linejoin:round;stroke-width:3px;}</style>
    <clipPath
       id="clip-path">
      <rect
         height="860.62"
         width="600.67"
         y="-196.67"
         x="-972.46"
         class="cls-1"
         id="SVGID" />
    </clipPath>
  </defs>
  <g
     id="g554"
     clip-path="url(#clip-path)"
     class="cls-2" />
  <g
     style="stroke-width:0.366414"
     transform="matrix(2.7291551,0,0,2.7291551,-1296.8343,-1296.8656)"
     data-name="Icon ionic-md-chatboxes"
     id="Icon_ionic-md-chatboxes">
    <path
       style="stroke-width:0.366414"
       d="m 893.28,547 h -353 a 10.16,10.16 0 0 0 -10.14,8.63 v 226.48 a 10.59,10.59 0 0 0 10.14,9.11 h 60.68 v 94 l 95.27,-94 h 197.05 a 8.53,8.53 0 0 0 7.88,-9.11 V 555.67 a 8.09,8.09 0 0 0 -7.53,-8.62 z"
       data-name="Path 1"
       id="Path_1" />
    <path
       style="stroke-width:0.366414"
       d="m 961.82,613.64 h -34.23 v 176.08 c 0,16.9 -7.3,27.93 -26.58,27.93 H 709.93 l -41.12,41.23 H 805.9 L 901.16,953 v -94.12 h 60.66 a 8.73,8.73 0 0 0 8,-9.17 V 623.26 a 9.14,9.14 0 0 0 -8,-9.62 z"
       data-name="Path 2"
       id="Path_2" />
  </g>
</svg>
