<svg xmlns="http://www.w3.org/2000/svg" xmlns:xlink="http://www.w3.org/1999/xlink" width="232" height="70" viewBox="0 0 232 70">
  <defs>
    <filter id="Path_20" x="0" y="0" width="232" height="70" filterUnits="userSpaceOnUse">
      <feOffset dy="3" input="SourceAlpha"/>
      <feGaussianBlur stdDeviation="3" result="blur"/>
      <feFlood flood-opacity="0.161"/>
      <feComposite operator="in" in2="blur"/>
      <feComposite in="SourceGraphic"/>
    </filter>
    <filter id="Live_Chat" x="64.523" y="12" width="137" height="47" filterUnits="userSpaceOnUse">
      <feOffset dy="3" input="SourceAlpha"/>
      <feGaussianBlur stdDeviation="3" result="blur-2"/>
      <feFlood flood-opacity="0.161"/>
      <feComposite operator="in" in2="blur-2"/>
      <feComposite in="SourceGraphic"/>
    </filter>
  </defs>
  <g id="Group_791" data-name="Group 791" transform="translate(-702 -863)">
    <g transform="matrix(1, 0, 0, 1, 702, 863)" filter="url(#Path_20)">
      <path id="Path_20-2" data-name="Path 20" d="M20,0H194a20,20,0,0,1,20,20V32a20,20,0,0,1-20,20H20A20,20,0,0,1,0,32V20A20,20,0,0,1,20,0Z" transform="translate(9 6)" fill="#b0cecf"/>
    </g>
    <g transform="matrix(1, 0, 0, 1, 702, 863)" filter="url(#Live_Chat)">
      <text id="Live_Chat-2" data-name="Live Chat" transform="translate(73.52 42)" font-size="25" font-family="Quicksand-Bold, Quicksand" font-weight="700"><tspan x="0" y="0">Live Chat</tspan></text>
    </g>
    <g id="Icon_ionic-md-chatboxes" data-name="Icon ionic-md-chatboxes" transform="translate(730.688 882)">
      <path id="Path_1" data-name="Path 1" d="M27.531,4.5H4.05a.677.677,0,0,0-.675.574V20.136a.705.705,0,0,0,.675.606H8.086v6.25l6.337-6.25H27.531a.568.568,0,0,0,.524-.606V5.074A.538.538,0,0,0,27.531,4.5Z" transform="translate(-3.375 -4.5)"/>
      <path id="Path_2" data-name="Path 2" d="M32.09,8.93H29.813V20.642c0,1.124-.486,1.858-1.768,1.858H15.335L12.6,25.242h9.119L28.055,31.5V25.242H32.09a.58.58,0,0,0,.535-.61V9.57A.608.608,0,0,0,32.09,8.93Z" transform="translate(-3.375 -4.5)"/>
    </g>
  </g>
</svg>
